<?xml version="1.0" encoding="UTF-8" standalone="no"?><!DOCTYPE svg PUBLIC "-//W3C//DTD SVG 1.1//EN" "http://www.w3.org/Graphics/SVG/1.1/DTD/svg11.dtd"><svg width="100%" height="100%" viewBox="0 0 76 76" version="1.1" xmlns="http://www.w3.org/2000/svg" xmlns:xlink="http://www.w3.org/1999/xlink" xml:space="preserve" style="fill-rule:evenodd;clip-rule:evenodd;stroke-linejoin:round;stroke-miterlimit:1.41421;"><g id="Full-Screen-Button"><circle cx="38" cy="38" r="38" style="fill:#fff;fill-opacity:0.7;"/><g><path d="M41.961,35.539c-0.828,0 -1.5,-0.672 -1.5,-1.5l0,-13c0,-0.828 0.672,-1.5 1.5,-1.5c0.828,0 1.5,0.672 1.5,1.5l0,9.379l12.979,-12.979c0.585,-0.585 1.536,-0.585 2.121,0c0.585,0.585 0.585,1.536 0,2.121l-12.979,12.979l9.379,0c0.828,0 1.5,0.672 1.5,1.5c0,0.828 -0.672,1.5 -1.5,1.5l-13,0Z" style="fill:#af0000;"/><path d="M32.539,45.582l-12.979,12.979c-0.585,0.585 -1.536,0.585 -2.121,0c-0.585,-0.585 -0.585,-1.536 0,-2.121l12.979,-12.979l-9.379,0c-0.828,0 -1.5,-0.672 -1.5,-1.5c0,-0.828 0.672,-1.5 1.5,-1.5l13,0c0.007,0 0.013,0 0.02,0c0.003,0 0.006,0 0.009,0c0.009,0 0.019,0.001 0.028,0.001l0.001,0l0.01,0c0.009,0.001 0.019,0.001 0.028,0.002l0.004,0c0.007,0.001 0.015,0.001 0.023,0.002c0.02,0.001 0.039,0.003 0.059,0.006l0.009,0.001c0.044,0.005 0.087,0.013 0.13,0.022c0.31,0.068 0.584,0.231 0.79,0.458c0.008,0.009 0.016,0.018 0.024,0.028c0.228,0.263 0.365,0.605 0.365,0.98l0,13c0,0.828 -0.672,1.5 -1.5,1.5c-0.828,0 -1.5,-0.672 -1.5,-1.5l0,-9.379Z" style="fill:#af0000;"/></g></g></svg>