<?xml version="1.0" encoding="utf-8"?>
<!-- Generator: Adobe Illustrator 19.2.1, SVG Export Plug-In . SVG Version: 6.00 Build 0)  -->
<svg version="1.1" id="Layer_1" xmlns="http://www.w3.org/2000/svg" xmlns:xlink="http://www.w3.org/1999/xlink" x="0px" y="0px"
	 viewBox="0 0 720 109" style="enable-background:new 0 0 720 109;" xml:space="preserve">
<style type="text/css">
	.st0{enable-background:new    ;}
	.st1{fill:#A61F23;}
	.st2{fill:#231F20;}
	.st3{clip-path:url(#SVGID_2_);}
</style>
<g class="st0">
	<path class="st1" d="M21.6,1.3h4.5l19.3,42.6h-5.1l-5-11.2h-23l-5,11.2H2.4L21.6,1.3z M33.4,28.3L23.8,6.8l-9.7,21.5H33.4z"/>
</g>
<g class="st0">
	<path class="st1" d="M68.7,22.8v-0.1c0-12,8.9-21.9,21.4-21.9c7.7,0,12.3,2.7,16.5,6.7l-3.3,3.5C99.7,7.7,95.8,5.3,90,5.3
		c-9.4,0-16.4,7.6-16.4,17.3v0.1c0,9.8,7.1,17.4,16.4,17.4c5.8,0,9.6-2.2,13.6-6.1l3.1,3.1c-4.4,4.5-9.2,7.4-16.9,7.4
		C77.7,44.6,68.7,35,68.7,22.8z"/>
</g>
<g class="st0">
	<path class="st1" d="M112.8,1.6h4.8v37.9h23.8v4.4h-28.6V1.6z"/>
</g>
<g class="st0">
	<path class="st1" d="M168.1,1.3h4.5l19.3,42.6h-5.1l-5-11.2h-23l-5,11.2h-4.9L168.1,1.3z M179.9,28.3l-9.6-21.5l-9.7,21.5H179.9z"
		/>
	<path class="st1" d="M196.6,37.7l3-3.5c4.4,4,8.6,6,14.5,6c5.7,0,9.4-3,9.4-7.2v-0.1c0-3.9-2.1-6.2-11-8
		c-9.7-2.1-14.2-5.3-14.2-12.2v-0.1c0-6.6,5.9-11.5,13.9-11.5c6.2,0,10.6,1.8,14.9,5.2l-2.8,3.7c-3.9-3.2-7.8-4.6-12.2-4.6
		c-5.5,0-9,3-9,6.8v0.1c0,4,2.2,6.2,11.5,8.2c9.4,2.1,13.8,5.5,13.8,12v0.1c0,7.2-6,12-14.4,12C207.1,44.5,201.6,42.2,196.6,37.7z"
		/>
	<path class="st1" d="M234.6,37.7l3-3.5c4.4,4,8.6,6,14.5,6c5.7,0,9.4-3,9.4-7.2v-0.1c0-3.9-2.1-6.2-11-8
		c-9.7-2.1-14.2-5.3-14.2-12.2v-0.1c0-6.6,5.9-11.5,13.9-11.5c6.2,0,10.6,1.8,14.9,5.2l-2.8,3.7c-3.9-3.2-7.8-4.6-12.2-4.6
		c-5.5,0-9,3-9,6.8v0.1c0,4,2.2,6.2,11.5,8.2c9.4,2.1,13.8,5.5,13.8,12v0.1c0,7.2-6,12-14.4,12C245.2,44.5,239.7,42.2,234.6,37.7z"
		/>
	<path class="st1" d="M276.4,1.6h4.8v42.3h-4.8V1.6z"/>
	<path class="st1" d="M291.7,22.8v-0.1c0-12,8.9-21.9,21.4-21.9c7.7,0,12.3,2.7,16.5,6.7l-3.3,3.5c-3.6-3.4-7.5-5.8-13.3-5.8
		c-9.4,0-16.4,7.6-16.4,17.3v0.1c0,9.8,7.1,17.4,16.4,17.4c5.8,0,9.6-2.2,13.6-6.1l3.1,3.1c-4.4,4.5-9.2,7.4-16.9,7.4
		C300.7,44.6,291.7,35,291.7,22.8z"/>
</g>
<g class="st0">
	<path class="st1" d="M357.8,1.6h4.8v37.9h23.8v4.4h-28.6V1.6z"/>
</g>
<g class="st0">
	<path class="st1" d="M413.2,1.3h4.5l19.3,42.6h-5.1l-5-11.2h-23l-5,11.2H394L413.2,1.3z M425,28.3l-9.6-21.5l-9.7,21.5H425z"/>
</g>
<g class="st0">
	<path class="st1" d="M445.3,1.6h4.5l26.6,33.9V1.6h4.6v42.3h-3.8L449.9,9.2v34.7h-4.6V1.6z"/>
</g>
<g class="st0">
	<path class="st1" d="M490.6,1.6h14.7c13.3,0,22.5,9.1,22.5,21v0.1c0,11.9-9.2,21.1-22.5,21.1h-14.7V1.6z M495.3,6v33.5h9.9
		c10.7,0,17.5-7.2,17.5-16.6v-0.1c0-9.4-6.8-16.7-17.5-16.7H495.3z"/>
	<path class="st1" d="M537.8,1.6h4.8L558,24.7l15.4-23.1h4.8v42.3h-4.8V9.6l-15.4,22.6h-0.2L542.4,9.7v34.2h-4.6V1.6z"/>
	<path class="st1" d="M605.8,1.3h4.5l19.3,42.6h-5.1l-5-11.2h-23l-5,11.2h-4.9L605.8,1.3z M617.6,28.3L608,6.8l-9.7,21.5H617.6z"/>
	<path class="st1" d="M637.9,1.6h18.2c5.2,0,9.4,1.6,12,4.2c2.1,2.1,3.3,5,3.3,8.3v0.1c0,7-4.8,11.1-11.5,12.3l13,17.3H667
		l-12.3-16.4h-12.1v16.4h-4.8V1.6z M655.7,23.1c6.3,0,10.9-3.3,10.9-8.7v-0.1c0-5.2-4-8.3-10.8-8.3h-13v17.1H655.7z"/>
	<path class="st1" d="M681.6,1.6h4.8v25.2l24.3-25.2h6.2l-18.1,18.5l18.9,23.8h-6l-16.2-20.5l-9,9.1v11.4h-4.8V1.6z"/>
</g>
<g class="st0">
	<path class="st2" d="M93.5,101.5c0-0.3,0-0.5,0.1-0.7c0.1-0.5,0.2-0.9,0.4-1.2c0.2-0.3,0.5-0.5,0.8-0.5c0.2,0,0.4,0.1,0.6,0.2
		s0.4,0.2,0.5,0.3c0.1,0.1,0.3,0.3,0.5,0.5c0.1,0.1,0.2,0.2,0.3,0.3c0.1,0.1,0.2,0.1,0.4,0.2c0.2,0.1,0.3,0.1,0.5,0.1
		c0.8,0,1.4-0.7,2-2.1c0.5-1.4,1.1-3.9,1.8-7.5l2.5-14.2h-3.6c-0.1,0-0.1,0-0.1-0.1c0-0.2,0.2-0.5,0.6-0.8c0.4-0.3,0.9-0.5,1.3-0.5
		h2c0.3-1.4,0.6-2.7,1.1-3.9s1-2.3,1.6-3.2c0.6-0.9,1.2-1.7,1.9-2.4c0.7-0.7,1.4-1.2,2.1-1.6c0.7-0.4,1.4-0.5,2.1-0.5
		c0.6,0,1.1,0.1,1.5,0.3s0.7,0.5,0.8,0.7v0.4c0,0.5-0.2,1-0.4,1.4c-0.2,0.4-0.5,0.6-0.9,0.6c-0.2,0-0.4-0.1-0.6-0.2
		s-0.4-0.2-0.5-0.3c-0.1-0.1-0.3-0.3-0.5-0.5c-0.1-0.1-0.2-0.2-0.3-0.3c-0.1-0.1-0.2-0.1-0.4-0.2c-0.2-0.1-0.3-0.1-0.5-0.1
		c-0.8,0-1.4,0.7-2,2.2c-0.5,1.5-1.1,4-1.8,7.6h4.2c0.1,0,0.2,0.2,0.2,0.5c0,0.3-0.1,0.6-0.4,1H107c-1,5.8-1.8,10.5-2.5,14
		c-0.3,1.7-0.8,3.2-1.5,4.7c-0.6,1.5-1.4,2.7-2.2,3.7c-0.8,1-1.6,1.8-2.5,2.4c-0.9,0.6-1.8,0.9-2.6,0.9c-0.6,0-1-0.1-1.4-0.3
		S93.6,101.8,93.5,101.5z"/>
</g>
<g class="st0">
	<path class="st2" d="M111.8,86.9c0-1.2,0.2-2.3,0.5-3.6c0.3-1.2,0.8-2.4,1.5-3.4c0.6-1.1,1.3-2,2.1-2.8c0.8-0.8,1.7-1.5,2.6-2
		c1-0.5,1.9-0.7,2.8-0.7c1.6,0,2.9,0.6,3.7,1.7c0.8,1.1,1.2,2.6,1.2,4.5c0,1.2-0.2,2.3-0.5,3.6c-0.4,1.2-0.8,2.3-1.5,3.4
		s-1.3,2-2.1,2.8c-0.8,0.8-1.7,1.5-2.6,1.9c-1,0.5-1.9,0.7-2.9,0.7c-1.6,0-2.8-0.5-3.7-1.6C112.2,90.2,111.8,88.8,111.8,86.9z
		 M115.1,86.1c0,1.7,0.2,3.1,0.6,4.1c0.4,1,1,1.5,1.8,1.5c0.7,0,1.3-0.2,1.9-0.7c0.6-0.4,1.1-1,1.6-1.8s0.8-1.6,1.1-2.5
		c0.3-0.9,0.5-1.8,0.7-2.8c0.2-1,0.2-1.9,0.2-2.7c0-1.7-0.2-3.1-0.6-4.1c-0.4-1-0.9-1.5-1.7-1.5c-0.7,0-1.3,0.2-1.9,0.7
		s-1.1,1-1.6,1.8c-0.4,0.7-0.8,1.6-1.2,2.5s-0.6,1.8-0.7,2.8S115.1,85.2,115.1,86.1z"/>
	<path class="st2" d="M129.1,78.3c0.1-0.2,0.4-0.6,0.8-1c0.4-0.4,0.8-0.8,1.3-1.3c0.5-0.5,1.1-0.9,1.7-1.2c0.6-0.3,1.1-0.5,1.6-0.5
		c0.2,0,0.4,0.1,0.6,0.2c0.2,0.1,0.4,0.3,0.5,0.5c0.1,0.2,0.3,0.4,0.4,0.7c0.1,0.3,0.1,0.6,0.1,0.9s-0.1,1.1-0.3,2.2
		c-0.1,0.8-0.3,1.9-0.6,3.5c0.3-0.8,0.7-1.6,1.2-2.4c0.5-0.9,1-1.7,1.6-2.6c0.6-0.8,1.2-1.5,1.8-2.1s1.1-0.8,1.6-0.8
		c0.4,0,0.8,0.1,1.2,0.3c0.4,0.2,0.7,0.4,0.9,0.6c0,0.1,0.1,0.2,0.2,0.3c0.1,0.1,0.1,0.3,0.1,0.4s0.1,0.3,0.1,0.4
		c0,0.6-0.1,1-0.4,1.3c-0.3,0.3-0.6,0.5-1.1,0.5c-0.2,0-0.4-0.1-0.7-0.2c-0.2-0.1-0.4-0.3-0.6-0.5c-0.2-0.2-0.5-0.3-0.9-0.3
		c-0.2,0-0.5,0.2-0.9,0.5c-0.4,0.3-0.7,0.7-1.1,1.2s-0.8,1.1-1.2,1.8c-0.4,0.7-0.8,1.4-1.1,2.2c-0.3,0.7-0.7,1.5-0.9,2.3
		c-0.3,0.8-0.5,1.6-0.6,2.3l-0.9,5.1c-0.5,0.1-1,0.1-1.5,0.1c-0.6,0-1.1,0-1.7-0.1l2.5-13.6c0.2-0.7,0.3-1.1,0.3-1.3
		c0-0.7-0.2-1.1-0.5-1.1c-0.1,0-0.3,0-0.4,0.1s-0.3,0.2-0.5,0.3s-0.4,0.3-0.5,0.5c-0.2,0.2-0.4,0.3-0.5,0.5
		c-0.2,0.2-0.3,0.3-0.4,0.5c-0.1,0.1-0.2,0.3-0.3,0.4c-0.1,0.1-0.1,0.2-0.1,0.2c-0.1,0-0.2-0.1-0.3-0.3
		C129.1,78.6,129.1,78.5,129.1,78.3z"/>
	<path class="st2" d="M154.5,76.7c0-0.2,0.2-0.5,0.6-0.8c0.4-0.3,0.9-0.5,1.3-0.5h1.3l0.5-2.6c0.3-0.4,0.8-1,1.5-1.7
		c0.7-0.7,1.1-1.1,1.2-1.1c0.3,0,0.5,0.1,0.7,0.3l-0.9,5.2h3.2c0.1,0,0.2,0.2,0.2,0.5c0,0.3-0.1,0.6-0.4,1h-3.3l-2.2,11.4
		c-0.1,0.6-0.2,1-0.2,1.3c0,0.7,0.1,1.1,0.4,1.1c0.1,0,0.3-0.1,0.5-0.2c0.2-0.1,0.4-0.3,0.6-0.4c0.2-0.2,0.4-0.4,0.6-0.6
		c0.2-0.2,0.4-0.4,0.6-0.6c0.2-0.2,0.3-0.3,0.4-0.5l0.2-0.2c0,0,0.1,0,0.2,0.1c0.1,0.1,0.1,0.2,0.2,0.3c0.1,0.1,0.1,0.2,0.1,0.3
		c-0.1,0.2-0.4,0.5-0.8,1c-0.4,0.4-0.9,0.9-1.4,1.3c-0.5,0.5-1.1,0.9-1.7,1.2c-0.6,0.3-1.2,0.5-1.6,0.5c-0.4,0-0.8-0.2-1-0.6
		c-0.3-0.4-0.4-0.9-0.4-1.6c0-0.5,0.1-1.2,0.3-2.2l2.2-11.7h-2.8C154.5,76.9,154.5,76.8,154.5,76.7z"/>
	<path class="st2" d="M165.4,92.7l4.7-24.4c0-0.2,0.1-0.4,0.2-0.8c0.1-0.4,0.1-0.7,0.2-0.9c0-0.3,0.1-0.4,0.1-0.4c0,0-0.9,0-2.6,0
		c-0.1-0.1-0.1-0.2,0-0.4c0-0.2,0.1-0.4,0.2-0.5c1.5-0.1,3.4-0.6,5.4-1.4c0.2,0.1,0.2,0.4,0.2,0.8c0,0.3-0.1,1.3-0.4,3.2l-2.1,11
		l-0.8,3.9c0.1-0.2,0.4-0.7,0.8-1.3c0.4-0.6,0.9-1.3,1.6-2.1s1.3-1.6,1.9-2.3c0.7-0.7,1.4-1.3,2.1-1.9s1.3-0.8,1.8-0.8
		c0.5,0,1,0.1,1.3,0.4c0.4,0.2,0.6,0.6,0.8,1c0.2,0.4,0.2,0.9,0.2,1.4c0,1.2-0.2,2.7-0.7,4.6l-1.3,6.1c0,0.1-0.1,0.3-0.1,0.6
		c-0.1,0.3-0.1,0.6-0.1,0.7c0,1,0.1,1.4,0.4,1.4c0.1,0,0.3-0.1,0.5-0.2c0.2-0.1,0.4-0.3,0.6-0.4c0.2-0.2,0.4-0.4,0.6-0.6
		c0.2-0.2,0.4-0.4,0.6-0.6c0.2-0.2,0.3-0.3,0.4-0.5s0.2-0.2,0.2-0.2c0.1,0,0.1,0.1,0.3,0.3s0.2,0.4,0.2,0.5c-0.1,0.2-0.4,0.5-0.8,1
		c-0.4,0.4-0.9,0.9-1.4,1.3c-0.5,0.5-1.1,0.9-1.7,1.2c-0.6,0.3-1.2,0.5-1.6,0.5s-0.8-0.2-1.1-0.6c-0.3-0.4-0.4-0.9-0.4-1.6
		c0-0.7,0.1-1.4,0.3-2.2l1.4-7c0-0.2,0.1-0.6,0.2-1.1c0.1-0.5,0.2-0.9,0.2-1.1c0-0.3,0-0.5,0-0.7c0-0.2-0.1-0.4-0.1-0.6
		s-0.1-0.3-0.2-0.4c-0.1-0.1-0.2-0.1-0.4-0.1c-0.3,0-0.7,0.2-1.3,0.6c-0.5,0.4-1.1,0.9-1.7,1.6s-1.2,1.4-1.8,2.3
		c-0.6,0.8-1.1,1.8-1.6,2.8s-0.8,2-1,2.9c-0.2,1-0.5,2.7-1,5c-0.4,0.1-0.9,0.2-1.6,0.2C166.4,92.9,165.9,92.8,165.4,92.7z"/>
	<path class="st2" d="M185.2,86.9c0-1,0.2-2,0.5-3.1c0.3-1.1,0.7-2,1.2-2.9c0.5-0.9,1.1-1.8,1.8-2.6c0.7-0.8,1.4-1.5,2.2-2.1
		c0.8-0.6,1.6-1,2.4-1.4c0.9-0.3,1.7-0.5,2.5-0.5c0.5,0,1,0.1,1.3,0.2c0.4,0.2,0.7,0.4,0.9,0.6c0.2,0.3,0.4,0.5,0.4,0.8
		c0.1,0.3,0.1,0.6,0.1,1c0,0.6-0.2,1.3-0.6,2c-0.4,0.7-0.9,1.3-1.5,1.8c-0.6,0.5-1.3,1-2,1.5s-1.5,0.9-2.2,1.2s-1.4,0.6-2.1,0.8
		c-0.7,0.2-1.2,0.3-1.7,0.3c-0.1,0.2-0.1,0.6-0.1,1.4c0,1.4,0.2,2.6,0.7,3.4c0.5,0.8,1.2,1.3,2.2,1.3c0.2,0,0.5,0,0.7-0.1
		c0.3-0.1,0.5-0.2,0.7-0.3s0.5-0.3,0.7-0.5c0.2-0.2,0.5-0.4,0.7-0.5c0.2-0.2,0.4-0.4,0.6-0.5c0.2-0.2,0.3-0.3,0.5-0.5
		s0.2-0.3,0.3-0.4l0.1-0.2c0.1,0,0.2,0.1,0.3,0.3c0.1,0.2,0.2,0.4,0.2,0.5c-0.2,0.3-0.5,0.6-0.9,1.1s-0.9,0.9-1.5,1.5
		c-0.6,0.5-1.3,1-2,1.3c-0.7,0.4-1.4,0.6-2,0.6c-1.5,0-2.6-0.5-3.4-1.6C185.6,90.3,185.2,88.8,185.2,86.9z M188.7,83.5
		c0.3,0,0.8-0.1,1.3-0.3c0.5-0.2,1.1-0.5,1.8-0.8c0.6-0.4,1.2-0.8,1.8-1.2c0.6-0.5,1-1,1.4-1.6s0.5-1.2,0.5-1.8
		c0-0.5-0.2-0.9-0.5-1.2s-0.8-0.4-1.2-0.4c-0.6,0-1.1,0.2-1.6,0.6c-0.5,0.4-1,0.9-1.4,1.4c-0.4,0.6-0.7,1.2-1,1.9
		c-0.3,0.7-0.5,1.3-0.7,1.9C188.8,82.5,188.7,83.1,188.7,83.5z"/>
</g>
<g>
	<g>
		<defs>
			<rect id="SVGID_1_" x="62.6" y="-0.3" width="533" height="112.4"/>
		</defs>
		<clipPath id="SVGID_2_">
			<use xlink:href="#SVGID_1_"  style="overflow:visible;"/>
		</clipPath>
		<g class="st3">
			<g class="st0">
				<path class="st2" d="M207.7,105.1c0,0,0-0.1,0-0.1c0-0.1,0-0.4,0.1-0.6c0.1-0.4,0.2-0.8,0.3-1c0.6,0,1.5-0.1,2.6-0.3
					s1.9-0.5,2.2-0.8c0.5-0.6,1-1.6,1.3-3.1c0.8-3.5,1.6-7,2.4-10.6c0.8-3.6,1.5-6.7,2.1-9.3c0.6-2.6,1.1-4.8,1.4-6.5
					c0.4-1.8,0.6-2.8,0.7-3c0.2-0.9,0.3-1.5,0.3-2c0-0.2,0-0.3,0-0.4c0-0.3-0.5-0.6-1.5-0.9c-1-0.3-1.7-0.4-2.2-0.4
					c0-0.1,0-0.2,0-0.4c0-0.2,0-0.4,0.1-0.6c0-0.2,0.1-0.4,0.1-0.5c0.1-0.2,0.1-0.3,0.2-0.3c2.4,0.2,4.2,0.2,5.5,0.2
					c1.6,0,3.2-0.1,4.9-0.2c0.1,1.2,0.7,4.4,1.8,9.8c1.1,5.4,2.1,10.5,3,15.3c0.9,4.8,1.4,7.2,1.4,7.2c0,0,1.1-2.1,3.4-6.2
					s4.6-8.3,7-12.4l3.5-6.2c0.5-0.8,1-1.9,1.7-3.1c0.7-1.2,1.2-2.3,1.6-3.1l0.6-1.2c2.4,0.2,3.8,0.2,4.3,0.2c1.8,0,3.7-0.1,5.7-0.2
					l-0.1,1.8c-0.5,0-1.3,0.1-2.4,0.4c-1.1,0.2-1.7,0.5-1.9,0.8c-0.3,0.6-0.6,1.4-0.7,2.3l-4.7,27c-0.3,1.9-0.5,3.5-0.5,4.7
					c0,0.5,0,0.9,0.1,1.3s0.6,0.6,1.5,0.8c0.9,0.2,1.7,0.3,2.3,0.3c0.1,0.3,0.1,0.6,0,1c-0.1,0.4-0.1,0.6-0.2,0.8
					c-0.4,0-1-0.1-2-0.1s-1.9-0.1-2.6-0.1s-1.4-0.1-2.2-0.1c-0.8,0-1.5,0-2.3,0.1s-1.5,0.1-2.4,0.1c-0.9,0.1-1.7,0.1-2.3,0.1
					c0-0.1,0-0.4,0.1-0.8c0.1-0.4,0.2-0.8,0.3-1c0.5,0,1.1-0.1,2-0.2c0.9-0.1,1.5-0.3,1.9-0.5c0.3-0.2,0.6-1.1,1-2.6
					c0-0.2,0.3-2,0.8-5.1s1.2-7.4,2-12.5c0.8-5.2,1.5-9.3,2-12.4c-0.2,0.4-1.9,3.2-4.9,8.5c-3,5.3-6,10.5-8.8,15.6l-4.4,7.7
					c-0.2,0.4-0.7,1-1.3,1.9c-0.7,0.8-1.1,1.3-1.4,1.3c0,0-0.1,0-0.1,0s-0.1,0-0.1,0c0,0-0.1,0-0.1-0.1c-0.1,0-0.1,0-0.1-0.1
					l-7-36.1c-0.5,2.5-1.2,5.3-1.8,8.3c-0.7,3.1-1.3,5.9-1.8,8.4s-1.1,4.9-1.6,7.2s-0.9,4-1.2,5.4c-0.3,1.4-0.5,2.1-0.5,2.2
					c-0.1,0.5-0.1,0.9-0.1,1.3c0,0.2,0,0.4,0,0.6c0.1,0.3,0.4,0.5,1.1,0.7c0.7,0.2,1.3,0.3,1.9,0.4c0.6,0.1,1,0.1,1.3,0.1
					c0.1,0.1,0.1,0.3,0.1,0.6s-0.1,0.5-0.1,0.7c-0.1,0.2-0.1,0.4-0.2,0.5c-0.5,0-1.1-0.1-1.9-0.1c-0.7-0.1-1.4-0.1-2-0.1
					c-0.6,0-1.3-0.1-2-0.1c-0.8,0-1.5,0-2.2,0.1c-0.7,0-1.5,0.1-2.3,0.1C209.1,105,208.3,105.1,207.7,105.1z"/>
				<path class="st2" d="M264.2,88.1c0-2.3,0.3-4.6,0.8-6.7c0.6-2.2,1.3-4.1,2.3-5.9c1-1.8,2.2-3.4,3.5-4.8c1.4-1.5,2.9-2.7,4.5-3.7
					c1.6-1,3.3-1.7,5.1-2.3c1.8-0.5,3.6-0.8,5.5-0.8c2.4,0,4.6,0.4,6.6,1.3c2,0.9,3.7,2.1,5,3.7c1.3,1.6,2.4,3.4,3.1,5.5
					c0.7,2.1,1.1,4.4,1.1,6.9c0,2.4-0.3,4.6-0.8,6.8c-0.5,2.2-1.3,4.1-2.2,5.9c-1,1.8-2.1,3.4-3.4,4.8c-1.3,1.4-2.8,2.7-4.4,3.6
					c-1.6,1-3.3,1.7-5.2,2.3c-1.9,0.5-3.8,0.8-5.7,0.8c-2.4,0-4.7-0.5-6.7-1.4s-3.7-2.2-5-3.7c-1.3-1.6-2.4-3.4-3.1-5.6
					S264.2,90.5,264.2,88.1z M269.9,88.4c0,1.1,0,2.1,0.1,3.1s0.3,2,0.5,3.1c0.2,1,0.5,2,0.9,2.9c0.4,0.9,0.8,1.7,1.4,2.5
					c0.6,0.8,1.2,1.5,1.9,2c0.7,0.6,1.6,1,2.6,1.3c1,0.3,2.1,0.5,3.2,0.5c1.5,0,3-0.3,4.4-0.9c1.4-0.6,2.7-1.5,3.8-2.6
					c1.1-1.1,2.1-2.4,3-3.9c0.9-1.5,1.7-3.1,2.3-4.8c0.6-1.7,1.1-3.5,1.4-5.4c0.3-1.9,0.5-3.7,0.5-5.6c0-0.9,0-1.8-0.1-2.7
					c-0.1-0.9-0.2-1.8-0.5-2.9s-0.5-2-0.8-2.8c-0.3-0.9-0.8-1.7-1.4-2.5c-0.6-0.8-1.2-1.5-1.9-2.1c-0.7-0.6-1.6-1-2.6-1.4
					c-1-0.4-2.1-0.5-3.3-0.5c-1.6,0-3.1,0.4-4.6,1.1c-1.5,0.7-2.9,1.8-4.2,3.2c-1.3,1.4-2.4,3-3.4,4.8c-1,1.8-1.8,3.9-2.4,6.3
					C270.2,83.4,269.9,85.9,269.9,88.4z"/>
				<path class="st2" d="M303.5,104.2c0.1-0.4,0.2-0.7,0.4-0.9c0.6,0,1.4-0.1,2.4-0.3c1-0.2,1.6-0.4,1.7-0.7
					c0.1-0.1,0.1-0.2,0.2-0.4c0.1-0.2,0.1-0.3,0.2-0.4c0-0.1,0.1-0.3,0.1-0.5c0-0.2,0.1-0.4,0.1-0.5c0-0.1,0.1-0.3,0.1-0.6
					c0.1-0.3,0.1-0.5,0.1-0.6c0-0.1,0.1-0.4,0.1-0.7s0.1-0.6,0.1-0.7l5.2-26.3c0-0.1,0-0.2,0.1-0.4c0.4-1.8,0.6-3.1,0.6-3.8
					c0-0.1,0-0.3,0-0.4c0-0.3-0.5-0.5-1.5-0.7c-1-0.2-1.7-0.3-2.3-0.3c-0.1-0.2-0.1-0.5,0-1c0.1-0.5,0.2-0.8,0.4-1
					c0.4,0,1.1,0.1,2.1,0.1s1.9,0.1,2.6,0.1c0.7,0,1.4,0,2,0c0.7,0,2.1,0,4.1,0c2,0,3.4,0,4.3,0c2.2,0,4.2,0.2,6,0.7
					c1.8,0.5,3.4,1.1,4.8,2c1.4,0.8,2.5,1.9,3.5,3.1c1,1.2,1.8,2.6,2.2,4c0.5,1.5,0.8,3.1,0.9,4.8c0,0.4,0,0.8,0.1,1.2
					c0,1.4-0.2,2.8-0.5,4.2c-0.3,1.4-0.6,2.7-1,3.9c-0.4,1.3-0.9,2.5-1.5,3.8c-0.6,1.3-1.3,2.4-2.1,3.5c-0.8,1.1-1.7,2.1-2.7,3.1
					c-1,1-2.2,1.9-3.4,2.7c-1.3,0.8-2.7,1.5-4.2,2c-1.5,0.6-3.2,1-5,1.3s-3.8,0.5-5.8,0.5h-14.4c-0.1-0.1-0.1-0.2-0.1-0.4
					C303.4,104.6,303.5,104.4,303.5,104.2z M313.4,102.5c0.3,0.6,1.8,0.9,4.5,0.9c1.8,0,3.5-0.2,5.2-0.7c1.7-0.5,3.3-1.2,4.9-2.1
					c1.6-1,3-2.1,4.2-3.5s2.3-3,3.3-5c0.9-1.9,1.6-4.1,2.1-6.5c0.4-2.1,0.7-4.1,0.7-5.8c0-0.5,0-1.1-0.1-1.6c-0.2-2.1-0.6-4-1.3-5.5
					c-0.7-1.5-1.7-2.8-2.9-3.8c-1.2-1-2.7-1.7-4.2-2.2s-3.3-0.7-5.3-0.7c-0.4,0-0.9,0-1.4,0s-1.1,0.1-1.7,0.2
					c-0.6,0.1-1,0.3-1.1,0.4c-0.1,0.2-0.2,0.4-0.3,0.6c-0.1,0.2-0.2,0.5-0.2,0.9c-0.1,0.4-0.1,0.7-0.2,0.9c0,0.2-0.1,0.6-0.2,1.1
					c-0.1,0.6-0.2,0.9-0.2,1L314,98c-0.2,0.6-0.3,1.4-0.5,2.5c-0.1,0.7-0.1,1.2-0.1,1.5C313.4,102.3,313.4,102.4,313.4,102.5z"/>
				<path class="st2" d="M345.3,104.2c0.1-0.4,0.2-0.7,0.4-0.9c0.1,0,0.3,0,0.5,0c0.2,0,0.5,0,0.8-0.1s0.6-0.1,0.9-0.1
					c0.3-0.1,0.6-0.1,0.9-0.2c0.3-0.1,0.5-0.2,0.7-0.3c0.2-0.1,0.3-0.2,0.4-0.3c0.1-0.1,0.1-0.2,0.2-0.4c0.1-0.2,0.1-0.3,0.2-0.4
					c0-0.1,0.1-0.3,0.1-0.5c0.1-0.2,0.1-0.4,0.1-0.5c0-0.1,0.1-0.3,0.1-0.6c0.1-0.3,0.1-0.5,0.1-0.6c0-0.1,0.1-0.4,0.1-0.7
					s0.1-0.5,0.1-0.6l5.2-26.4c0.4-2,0.6-3.5,0.6-4.3c0-0.2,0-0.3,0-0.4c0-0.3-0.5-0.5-1.5-0.7c-1-0.2-1.7-0.3-2.3-0.3
					c-0.1-0.1-0.1-0.4,0-0.8s0.2-0.7,0.4-0.8c0.4,0,1.1,0,2.1,0.1c1,0.1,1.9,0.1,2.6,0.1c0.7,0,1.4,0,2,0c1.7,0,4.7-0.1,8.9-0.2
					c4.2-0.1,7.4-0.2,9.6-0.2c-0.1,0.3-0.1,0.8-0.1,1.5c0,0.7,0,1.6,0.1,2.6c0.1,2.5,0.1,3.9,0.1,4.2c-0.2,0.2-0.6,0.3-1.1,0.3
					c-0.5,0-0.7-0.1-0.7-0.4c-0.1-1.2-0.2-2.3-0.5-3.1c-0.3-0.8-0.7-1.5-1.2-2c-0.5-0.5-1-0.8-1.6-1c-0.6-0.2-1.3-0.3-2.1-0.3h-5
					c-0.4,0-0.8,0-1.3,0s-1,0.1-1.7,0.2c-0.6,0.1-1,0.3-1.1,0.5c-0.4,0.9-0.8,2.4-1.2,4.6l-2.3,11.8c0,0.1,0.2,0.2,0.6,0.3
					c0.5,0.1,1.1,0.1,1.8,0.1h3c0.7,0,1.3,0,1.7,0s0.9,0,1.3-0.1c0.4-0.1,0.8-0.1,1-0.2s0.5-0.2,0.8-0.3c0.3-0.2,0.5-0.3,0.6-0.5
					c0.1-0.1,0.3-0.4,0.5-0.7c0.2-0.4,0.4-0.7,0.5-0.9c0.1-0.2,0.3-0.7,0.5-1.2c0.1-0.2,0.2-0.4,0.2-0.6c0.1-0.3,0.4-0.4,1-0.4
					c0.4,0,0.7,0.1,0.8,0.3L371,90.5c-0.2,0.2-0.5,0.2-1,0.2c-0.5,0-0.7-0.2-0.8-0.5c-0.1-1.6-0.2-2.7-0.3-3.2
					c-0.1-0.5-0.3-0.9-0.5-1.1c-0.4-0.3-2.4-0.5-6-0.5c-2.7,0-4.2,0.2-4.3,0.6l-2.4,12.2c-0.4,1.8-0.5,3-0.5,3.7
					c0,0.3,0,0.5,0.1,0.6c0.2,0.2,0.5,0.3,0.8,0.4c0.4,0.1,0.7,0.1,1.1,0.2c0.4,0,1.1,0,2,0h2.7c3.2,0,5.7-0.6,7.7-1.9
					c1.8-1.2,3.4-3.3,4.8-6.2c0.1-0.3,0.4-0.4,0.9-0.4c0.3,0,0.6,0,0.9,0.1c0.3,0.1,0.4,0.2,0.5,0.3c-0.3,0.5-0.8,1.6-1.7,3.2
					s-1.6,3-2.1,4.1c-0.5,1.1-0.9,2-1.2,2.9c-1.9,0-5,0-9.2-0.1c-4.2-0.1-7.6-0.1-10.3-0.1c-1,0-2.2,0-3.6,0.1
					c-1.5,0.1-2.5,0.1-3.2,0.1c-0.1-0.1-0.1-0.2-0.1-0.5C345.2,104.5,345.2,104.4,345.3,104.2z"/>
				<path class="st2" d="M379.4,104.2c0.1-0.4,0.2-0.7,0.4-0.9c0.1,0,0.3,0,0.5,0c0.2,0,0.5,0,0.8-0.1c0.3,0,0.6-0.1,0.9-0.1
					c0.3-0.1,0.6-0.1,0.9-0.2c0.3-0.1,0.5-0.2,0.7-0.3c0.2-0.1,0.3-0.2,0.4-0.3c0.1-0.1,0.1-0.2,0.2-0.4c0.1-0.2,0.1-0.3,0.2-0.4
					c0-0.1,0.1-0.3,0.1-0.5c0-0.2,0.1-0.4,0.1-0.5c0-0.1,0.1-0.3,0.1-0.6s0.1-0.5,0.1-0.6c0-0.1,0.1-0.4,0.1-0.7
					c0.1-0.3,0.1-0.6,0.1-0.7l5.2-26.3c0.4-1.9,0.6-3.3,0.6-4.1c0-0.2,0-0.3,0-0.4c0-0.3-0.5-0.5-1.5-0.7c-1-0.2-1.7-0.3-2.3-0.3
					c-0.1-0.1-0.1-0.4,0-0.9c0.1-0.4,0.2-0.7,0.4-0.9c3.9,0.2,6.2,0.3,7,0.3c0.7,0,1.9,0,3.7-0.1c1.8,0,3.3-0.1,4.6-0.1
					c1.1,0,2.1,0.1,3.1,0.4c1,0.2,1.8,0.6,2.7,1.1c0.8,0.5,1.5,1.1,2.1,1.7c0.6,0.7,1.1,1.5,1.4,2.4c0.3,0.9,0.5,2,0.5,3.1
					c0,1.4-0.3,2.8-0.9,4.2c-0.6,1.3-1.4,2.5-2.4,3.5c-1,1-2.1,1.9-3.3,2.7s-2.4,1.4-3.7,1.8c1,2.6,2.1,5.3,3.4,8.1s2.4,4.9,3.2,6.3
					c0.8,1.3,1.5,2.2,2.3,2.7c0.8,0.5,2,0.8,3.5,1c0,0.1,0.1,0.1,0.1,0.2c0,0.1,0,0.2,0,0.4c-0.1,0.3-0.1,0.5-0.2,0.8
					c-0.1,0.2-0.1,0.4-0.2,0.5c-1,0-1.8,0-2.5,0c-0.7,0-1.4-0.1-2.2-0.1c-0.8-0.1-1.4-0.2-2-0.3c-0.6-0.1-1.1-0.3-1.6-0.5
					c-0.5-0.2-1-0.5-1.4-0.9c-0.4-0.4-0.7-0.8-0.9-1.2c-1-1.9-2.1-4.2-3.3-7c-1.2-2.8-2.3-5.5-3.3-8c-0.2-0.5-0.7-0.8-1.6-0.8h-3.1
					L390,97.8c0,0.1,0,0.2-0.1,0.3c-0.4,1.9-0.6,3.2-0.6,3.9c0,0.1,0,0.2,0,0.3c0,0.3,0.5,0.6,1.5,0.7c1,0.2,1.7,0.3,2.3,0.3
					c0.1,0.1,0.1,0.4,0,0.9c-0.1,0.5-0.2,0.7-0.4,0.9c-0.4,0-1.1-0.1-2.1-0.1s-1.8-0.1-2.4-0.1s-1.3-0.1-2-0.1s-1.3,0-2,0.1
					s-1.6,0.1-2.6,0.1s-1.8,0.1-2.2,0.1c-0.1-0.1-0.1-0.2-0.1-0.5C379.4,104.5,379.4,104.4,379.4,104.2z M392.6,84.5h3.1
					c0.7,0,1.4-0.1,2.1-0.2c0.7-0.1,1.4-0.4,2.2-0.7c0.7-0.3,1.4-0.7,2-1.1c0.6-0.4,1.2-1,1.8-1.6c0.6-0.6,1-1.3,1.4-2
					c0.4-0.7,0.7-1.6,1-2.5s0.4-1.9,0.4-3c0-0.6,0-1.2-0.1-1.8c-0.1-0.6-0.3-1.2-0.6-1.9c-0.3-0.7-0.7-1.3-1.2-1.8s-1.2-0.9-2.1-1.3
					c-0.9-0.4-2-0.5-3.2-0.5c-1.8,0-2.8,0.2-3,0.6c-0.1,0.1-0.1,0.2-0.2,0.3s-0.1,0.2-0.1,0.4c0,0.2-0.1,0.3-0.1,0.4
					c0,0.1-0.1,0.3-0.1,0.5c0,0.2-0.1,0.4-0.1,0.5c0,0.2-0.1,0.4-0.1,0.6c0,0.3-0.1,0.5-0.1,0.6c0,0.1-0.1,0.3-0.1,0.6
					c-0.1,0.3-0.1,0.5-0.1,0.6L392.6,84.5z"/>
				<path class="st2" d="M414.7,104.4c0.1-0.4,0.2-0.7,0.4-1c0.5,0,1.4-0.1,2.6-0.4s1.9-0.5,2.1-0.9c0.3-0.5,0.6-1,0.8-1.6
					s0.4-1.5,0.6-2.6l5.2-26.7c0.2-1.3,0.3-2.1,0.4-2.6s0-1-0.1-1.6c-0.1-0.3-0.7-0.6-1.7-0.8c-1-0.2-1.9-0.3-2.5-0.3
					c-0.1-0.4-0.1-0.7,0-1c0.1-0.3,0.2-0.6,0.3-0.7c0.5,0,1.1,0,1.6,0.1s1,0.1,1.3,0.1c0.3,0,0.7,0,1.1,0.1c0.4,0,0.8,0,1.3,0
					c1.2,0,2.9-0.1,5.1-0.2c0.5,1.4,1.9,3.9,4,7.7c2.1,3.8,4.4,7.9,6.9,12.4c2.5,4.5,4.4,8.1,5.7,10.8l4.4-23.4
					c0.3-1.2,0.5-2.1,0.5-2.7c0-0.1,0-0.2,0-0.3c0-0.5-0.1-1-0.2-1.5c-0.1-0.4-0.7-0.7-1.7-0.9c-1-0.2-1.8-0.3-2.5-0.3
					c-0.1-0.2-0.1-0.5-0.1-0.9s0.1-0.7,0.2-0.8c3,0.2,5.1,0.2,6.3,0.2c0.6,0,1.2,0,1.8,0c0.6,0,1,0,1.4-0.1c0.4,0,0.9,0,1.5-0.1
					c0.6,0,1.2-0.1,1.7-0.1c0.1,0.1,0.1,0.3,0.1,0.5c0,0.1,0,0.1,0,0.2c0,0.4-0.2,0.7-0.4,1.1c-0.5,0-1.4,0.1-2.5,0.3
					c-1.1,0.2-1.8,0.5-2.1,0.8c-0.3,0.5-0.6,1-0.7,1.5c-0.2,0.6-0.4,1.5-0.6,2.7L452,96.4c-0.8,4-1.3,6.8-1.5,8.6
					c-0.2,0.2-0.5,0.2-1.1,0.2c-0.3,0-0.5-0.1-0.9-0.4c-0.3-0.3-0.6-0.6-0.8-1l-18.6-34l-5.4,28c-0.2,0.9-0.3,1.5-0.4,1.9
					s-0.1,0.8-0.1,1.2s0.1,0.8,0.2,1.1c0.1,0.2,0.4,0.4,1,0.6c0.6,0.2,1.2,0.4,1.8,0.5c0.6,0.1,1.1,0.2,1.4,0.2
					c0.1,0.3,0.1,0.6,0,0.9c-0.1,0.4-0.1,0.6-0.3,0.9c-0.5,0-1.1-0.1-2-0.1c-0.9-0.1-1.6-0.1-2.3-0.1s-1.4-0.1-2.1-0.1
					c-0.8,0-1.5,0-2.1,0.1s-1.3,0.1-2.1,0.1c-0.8,0.1-1.5,0.1-2.1,0.1c-0.1-0.1-0.1-0.2-0.1-0.4
					C414.7,104.7,414.7,104.5,414.7,104.4z"/>
			</g>
			<g class="st0">
				<path class="st2" d="M472.1,105.1c0,0-0.1-0.1-0.1-0.2c0-0.1,0-0.3,0.1-0.6c0.1-0.4,0.2-0.8,0.3-1c0.5,0,1.1-0.1,1.9-0.3
					c0.8-0.2,1.3-0.5,1.6-0.9c0.4-0.4,0.7-0.8,1-1.2c0.3-0.4,0.7-0.9,1-1.5c0.3-0.5,0.6-1,0.9-1.4c0.2-0.4,0.5-1,0.9-1.7l17-30.6
					c0.3-0.5,0.7-0.9,1.2-1.2c0.6-0.4,1-0.6,1.4-0.6c0.1,0,0.2,0.1,0.4,0.2l5.3,32.9c0.1,0.6,0.2,1.2,0.3,1.9s0.2,1.3,0.3,1.6
					c0.1,0.3,0.1,0.6,0.1,0.6c0.1,0.3,0.2,0.5,0.4,0.8c0.2,0.2,0.4,0.4,0.7,0.6c0.3,0.1,0.5,0.2,0.8,0.3c0.3,0.1,0.6,0.2,0.9,0.2
					s0.5,0.1,0.7,0.1s0.3,0,0.4,0c0.1,0.1,0.1,0.3,0.1,0.5c0,0.1,0,0.3,0,0.5c-0.1,0.4-0.2,0.7-0.2,0.8c-0.4,0-1-0.1-2-0.1
					c-1-0.1-1.8-0.1-2.5-0.1c-0.7,0-1.5-0.1-2.2-0.1c-0.6,0-1.2,0-1.8,0c-0.6,0-1.1,0.1-1.5,0.1c-0.4,0-0.9,0.1-1.5,0.1
					c-0.6,0-1.2,0.1-1.7,0.1c-0.1-0.2-0.1-0.5-0.1-0.9c0.1-0.4,0.2-0.7,0.4-0.9c0.7,0,1.3-0.1,1.9-0.2c0.5-0.1,0.9-0.4,1.2-0.6
					c0.3-0.3,0.4-0.6,0.4-1c0-1.2-0.1-2.2-0.2-3l-1.4-9.2h-12.2c-2,3.6-3.4,6.2-4.4,8.1c-1.2,2.3-1.8,3.9-1.8,4.6
					c0,0.3,0.2,0.6,0.5,0.8c0.3,0.2,0.8,0.4,1.2,0.5c0.5,0.1,0.9,0.2,1.3,0.2c0.4,0,0.6,0.1,0.8,0.1c0.1,0.1,0,0.4,0,0.8
					c-0.1,0.5-0.1,0.8-0.2,1c-0.6,0-1.2-0.1-1.8-0.1c-0.6-0.1-1.2-0.1-1.8-0.1s-1.2-0.1-1.9-0.1c-0.8,0-1.5,0-2,0.1
					c-0.6,0-1.2,0.1-1.9,0.1C473.4,105,472.8,105.1,472.1,105.1z M487.4,87.1h10.8L495.8,72L487.4,87.1z"/>
			</g>
			<g class="st0">
				<path class="st2" d="M513.1,88.6c0-2.5,0.3-5,1-7.2s1.5-4.3,2.7-6.1s2.5-3.4,4.1-4.9c1.6-1.5,3.3-2.7,5.1-3.6
					c1.8-0.9,3.8-1.7,5.9-2.2c1.9-0.4,3.7-0.6,5.6-0.6c0.2,0,0.4,0,0.6,0c1.1,0,2.3,0.1,3.6,0.3c1.3,0.2,2.3,0.4,3.1,0.5
					c0.8,0.2,1.9,0.4,3.2,0.8c0,0.6-0.1,1.6-0.2,2.8c-0.1,1.2-0.2,2.4-0.3,3.7c-0.1,1.3-0.2,2.1-0.2,2.5c0,0.1,0,0.2-0.1,0.2
					c-0.1,0.1-0.2,0.1-0.3,0.1c-0.5,0-1-0.1-1.4-0.3c0-0.2,0-0.3,0-0.5c0-1.4-0.4-2.7-1.1-3.9c-0.8-1.3-1.9-2.4-3.4-3.1
					c-1.4-0.8-3-1.1-4.7-1.1c-2.4,0-4.7,0.5-6.8,1.5c-2.1,1-4,2.5-5.5,4.3c-1.6,1.8-2.8,4.2-3.8,6.9c-0.9,2.7-1.3,5.6-1.3,8.8
					c0,0.1,0,0.1,0,0.2c0,1.5,0.1,3,0.4,4.5c0.3,1.5,0.7,2.9,1.4,4.3s1.4,2.7,2.4,3.7c0.9,1.1,2.1,1.9,3.5,2.6c1.4,0.6,3,1,4.7,1
					c1.3,0,2.6-0.2,3.9-0.6c1.2-0.4,2.3-0.9,3.1-1.4c0.3-0.2,0.6-0.6,0.6-1.1l1.2-6.3c0-0.1,0-0.2,0.1-0.4c0.4-1.9,0.5-3.2,0.5-3.9
					c0-0.1,0-0.2,0-0.3c0-0.3-0.6-0.5-1.6-0.7c-1-0.2-1.9-0.3-2.5-0.3c-0.1-0.1-0.1-0.4,0-0.9s0.2-0.7,0.4-0.9
					c0.4,0,1.1,0.1,2.1,0.1s1.8,0.1,2.5,0.1s1.4,0,2,0c0.7,0,1.4,0,2.1,0s1.6-0.1,2.6-0.1s1.7-0.1,2.2-0.1c0.1,0.1,0.1,0.3,0.1,0.5
					c0,0.1,0,0.2,0,0.4c-0.1,0.5-0.2,0.8-0.4,0.9c-0.6,0-1.3,0.1-2.3,0.3s-1.5,0.4-1.6,0.7c-0.1,0.1-0.1,0.3-0.2,0.4
					c-0.1,0.2-0.1,0.3-0.2,0.4c0,0.1-0.1,0.3-0.2,0.6c-0.1,0.2-0.1,0.4-0.1,0.6c0,0.1-0.1,0.4-0.1,0.6c-0.1,0.3-0.1,0.5-0.1,0.6
					c0,0.1-0.1,0.3-0.1,0.7c-0.1,0.3-0.1,0.6-0.1,0.7l-0.9,4.4c-0.1,0.4-0.1,0.8,0,1.4c0.1,0.5,0.1,0.8,0.1,0.9
					c0,0.5-0.5,0.9-1.4,1.4c-0.1,0.1-0.3,0.1-0.5,0.2c-0.9,0.5-1.7,0.9-2.3,1.1c-0.6,0.3-1.4,0.6-2.5,0.9c-1.1,0.4-2.3,0.6-3.7,0.8
					c-1.4,0.2-2.9,0.2-4.6,0.2c-2.3,0-4.5-0.5-6.5-1.4c-2-0.9-3.8-2.1-5.2-3.6c-1.4-1.5-2.5-3.3-3.3-5.4S513.1,90.9,513.1,88.6z"/>
				<path class="st2" d="M552.1,104.2c0.1-0.4,0.2-0.7,0.4-0.9c0.1,0,0.3,0,0.5,0s0.5,0,0.8-0.1c0.3,0,0.6-0.1,0.9-0.1
					c0.3-0.1,0.6-0.1,0.9-0.2c0.3-0.1,0.5-0.2,0.7-0.3c0.2-0.1,0.3-0.2,0.4-0.3s0.1-0.2,0.2-0.4s0.1-0.3,0.2-0.4
					c0-0.1,0.1-0.3,0.1-0.5c0.1-0.2,0.1-0.4,0.1-0.5c0-0.1,0.1-0.3,0.1-0.6s0.1-0.5,0.1-0.6c0-0.1,0.1-0.4,0.1-0.7
					c0.1-0.3,0.1-0.5,0.1-0.6l5.2-26.4c0.4-2,0.6-3.5,0.6-4.3c0-0.2,0-0.3,0-0.4c0-0.3-0.5-0.5-1.5-0.7c-1-0.2-1.7-0.3-2.3-0.3
					c-0.1-0.1-0.1-0.4,0-0.8s0.2-0.7,0.4-0.8c0.4,0,1.1,0,2.1,0.1c1,0.1,1.9,0.1,2.6,0.1s1.4,0,2,0c1.7,0,4.7-0.1,8.9-0.2
					c4.2-0.1,7.4-0.2,9.6-0.2c-0.1,0.3-0.1,0.8-0.1,1.5c0,0.7,0,1.6,0.1,2.6c0.1,2.5,0.1,3.9,0.1,4.2c-0.2,0.2-0.6,0.3-1.1,0.3
					c-0.5,0-0.7-0.1-0.7-0.4c-0.1-1.2-0.2-2.3-0.5-3.1c-0.3-0.8-0.7-1.5-1.2-2c-0.5-0.5-1-0.8-1.6-1c-0.6-0.2-1.3-0.3-2.1-0.3h-5
					c-0.4,0-0.8,0-1.3,0c-0.5,0-1,0.1-1.7,0.2c-0.6,0.1-1,0.3-1.1,0.5c-0.4,0.9-0.8,2.4-1.2,4.6l-2.3,11.8c0,0.1,0.2,0.2,0.6,0.3
					c0.5,0.1,1.1,0.1,1.8,0.1h3c0.7,0,1.3,0,1.7,0s0.9,0,1.3-0.1c0.4-0.1,0.8-0.1,1-0.2c0.2,0,0.5-0.2,0.8-0.3s0.5-0.3,0.6-0.5
					s0.3-0.4,0.5-0.7c0.2-0.4,0.4-0.7,0.5-0.9c0.1-0.2,0.3-0.7,0.5-1.2c0.1-0.2,0.2-0.4,0.2-0.6c0.1-0.3,0.4-0.4,1-0.4
					c0.4,0,0.7,0.1,0.8,0.3l-2.2,11.7c-0.2,0.2-0.5,0.2-1,0.2c-0.5,0-0.7-0.2-0.8-0.5c-0.1-1.6-0.2-2.7-0.3-3.2
					c-0.1-0.5-0.3-0.9-0.5-1.1c-0.4-0.3-2.4-0.5-6-0.5c-2.7,0-4.2,0.2-4.3,0.6l-2.4,12.2c-0.4,1.8-0.5,3-0.5,3.7
					c0,0.3,0,0.5,0.1,0.6c0.2,0.2,0.5,0.3,0.8,0.4c0.4,0.1,0.7,0.1,1.1,0.2c0.4,0,1.1,0,2,0h2.7c3.2,0,5.7-0.6,7.7-1.9
					c1.8-1.2,3.4-3.3,4.8-6.2c0.1-0.3,0.4-0.4,0.9-0.4c0.3,0,0.6,0,0.9,0.1s0.4,0.2,0.5,0.3c-0.3,0.5-0.8,1.6-1.7,3.2
					s-1.6,3-2.1,4.1c-0.5,1.1-0.9,2-1.2,2.9c-1.9,0-5,0-9.2-0.1s-7.6-0.1-10.3-0.1c-1,0-2.2,0-3.6,0.1c-1.5,0.1-2.5,0.1-3.2,0.1
					c-0.1-0.1-0.1-0.2-0.1-0.5C552.1,104.5,552.1,104.4,552.1,104.2z"/>
			</g>
		</g>
	</g>
</g>
</svg>
