<?xml version="1.0" encoding="utf-8"?>
<!-- Generator: Adobe Illustrator 19.2.1, SVG Export Plug-In . SVG Version: 6.00 Build 0)  -->
<svg version="1.1" id="Layer_1" xmlns="http://www.w3.org/2000/svg" xmlns:xlink="http://www.w3.org/1999/xlink" x="0px" y="0px"
	 viewBox="0 0 311.5 181" style="enable-background:new 0 0 311.5 181;" xml:space="preserve">
<style type="text/css">
	.st0{enable-background:new    ;}
	.st1{fill:#A71F23;}
	.st2{clip-path:url(#SVGID_2_);}
</style>
<g class="st0">
	<path class="st1" d="M26.5,2.1h3.7l15.9,35h-4.2L37.8,28H18.8l-4.1,9.2h-4L26.5,2.1z M36.2,24.4L28.3,6.7l-8,17.7H36.2z"/>
</g>
<g class="st0">
	<path class="st1" d="M65.3,19.9L65.3,19.9c0-9.9,7.4-18.1,17.6-18.1C89.2,1.8,93,4,96.5,7.3l-2.7,2.9c-2.9-2.8-6.2-4.8-10.9-4.8
		c-7.7,0-13.5,6.3-13.5,14.3v0.1c0,8.1,5.8,14.4,13.5,14.4c4.8,0,7.9-1.8,11.2-5l2.6,2.5c-3.6,3.7-7.6,6.1-13.9,6.1
		C72.7,37.8,65.3,29.9,65.3,19.9z"/>
</g>
<g class="st0">
	<path class="st1" d="M101.5,2.4h3.9v31.2h19.6v3.6h-23.5V2.4z"/>
</g>
<g class="st0">
	<path class="st1" d="M147.2,2.1h3.7l15.9,35h-4.2l-4.1-9.2h-18.9l-4.1,9.2h-4L147.2,2.1z M156.9,24.4L149,6.7l-8,17.7H156.9z"/>
	<path class="st1" d="M170.6,32.1l2.4-2.9c3.6,3.3,7.1,4.9,11.9,4.9c4.7,0,7.8-2.5,7.8-5.9v-0.1c0-3.2-1.7-5.1-9-6.6
		c-8-1.7-11.7-4.3-11.7-10v-0.1c0-5.5,4.8-9.5,11.4-9.5c5.1,0,8.7,1.4,12.2,4.3l-2.3,3c-3.2-2.6-6.5-3.8-10-3.8
		c-4.5,0-7.4,2.5-7.4,5.6v0.1c0,3.3,1.8,5.1,9.4,6.8c7.8,1.7,11.3,4.5,11.3,9.8v0.1c0,6-5,9.8-11.9,9.8
		C179.3,37.7,174.8,35.8,170.6,32.1z"/>
	<path class="st1" d="M202,32.1l2.4-2.9c3.6,3.3,7.1,4.9,11.9,4.9c4.7,0,7.8-2.5,7.8-5.9v-0.1c0-3.2-1.7-5.1-9-6.6
		c-8-1.7-11.7-4.3-11.7-10v-0.1c0-5.5,4.8-9.5,11.4-9.5c5.1,0,8.7,1.4,12.2,4.3l-2.3,3c-3.2-2.6-6.5-3.8-10-3.8
		c-4.5,0-7.4,2.5-7.4,5.6v0.1c0,3.3,1.8,5.1,9.4,6.8c7.8,1.7,11.3,4.5,11.3,9.8v0.1c0,6-5,9.8-11.9,9.8
		C210.7,37.7,206.1,35.8,202,32.1z"/>
	<path class="st1" d="M236.4,2.4h3.9v34.8h-3.9V2.4z"/>
	<path class="st1" d="M249,19.9L249,19.9c0-9.9,7.4-18.1,17.6-18.1c6.3,0,10.1,2.2,13.6,5.5l-2.7,2.9c-2.9-2.8-6.2-4.8-10.9-4.8
		c-7.7,0-13.5,6.3-13.5,14.3v0.1c0,8.1,5.8,14.4,13.5,14.4c4.8,0,7.9-1.8,11.2-5l2.6,2.5c-3.6,3.7-7.6,6.1-13.9,6.1
		C256.4,37.8,249,29.9,249,19.9z"/>
</g>
<g class="st0">
	<path class="st1" d="M7.3,52.1h3.9v31.2h19.6v3.6H7.3V52.1z"/>
</g>
<g class="st0">
	<path class="st1" d="M52.9,51.8h3.7l15.9,35h-4.2l-4.1-9.2H45.2l-4.1,9.2h-4L52.9,51.8z M62.6,74.1l-7.9-17.7l-8,17.7H62.6z"/>
</g>
<g class="st0">
	<path class="st1" d="M79.3,52.1H83L104.9,80V52.1h3.8v34.8h-3.1L83.2,58.3v28.5h-3.8V52.1z"/>
</g>
<g class="st0">
	<path class="st1" d="M116.6,52.1h12.1c10.9,0,18.5,7.5,18.5,17.3v0.1c0,9.8-7.6,17.4-18.5,17.4h-12.1V52.1z M120.6,55.7v27.5h8.2
		c8.8,0,14.4-6,14.4-13.7v-0.1c0-7.7-5.6-13.8-14.4-13.8H120.6z"/>
	<path class="st1" d="M155.5,52.1h4l12.7,19l12.7-19h4v34.8h-3.9V58.7l-12.7,18.6H172l-12.7-18.6v28.1h-3.8V52.1z"/>
	<path class="st1" d="M211.6,51.8h3.7l15.9,35h-4.2l-4.1-9.2h-18.9l-4.1,9.2h-4L211.6,51.8z M221.2,74.1l-7.9-17.7l-8,17.7H221.2z"
		/>
	<path class="st1" d="M238,52.1h15c4.3,0,7.7,1.3,9.9,3.5c1.7,1.7,2.7,4.1,2.7,6.9v0.1c0,5.8-4,9.1-9.4,10.1l10.7,14.2h-4.8
		l-10.1-13.5h-9.9v13.5H238V52.1z M252.6,69.8c5.2,0,8.9-2.7,8.9-7.2v-0.1c0-4.3-3.3-6.9-8.9-6.9h-10.7v14.1H252.6z"/>
	<path class="st1" d="M273.9,52.1h3.9v20.8l20-20.8h5.1L288,67.3l15.6,19.6h-4.9L285.2,70l-7.4,7.5v9.3h-3.9V52.1z"/>
</g>
<g class="st0">
	<path d="M105.4,136.7c0-0.3,0-0.5,0.1-0.6c0.1-0.5,0.2-0.8,0.4-1.1s0.4-0.4,0.8-0.4c0.2,0,0.4,0,0.6,0.1c0.2,0.1,0.3,0.2,0.4,0.3
		c0.1,0.1,0.3,0.2,0.4,0.5c0.1,0.1,0.2,0.2,0.3,0.3c0.1,0.1,0.2,0.1,0.4,0.2c0.2,0.1,0.3,0.1,0.5,0.1c0.7,0,1.3-0.7,1.8-2
		c0.5-1.3,1.1-3.7,1.7-7l2.3-13.2h-3.3c-0.1,0-0.1,0-0.1-0.1c0-0.2,0.2-0.5,0.6-0.8c0.4-0.3,0.8-0.5,1.2-0.5h1.8
		c0.2-1.3,0.6-2.5,1-3.6c0.4-1.1,0.9-2.1,1.5-3c0.6-0.9,1.1-1.6,1.8-2.2s1.3-1.1,1.9-1.4c0.7-0.3,1.3-0.5,1.9-0.5
		c0.5,0,1,0.1,1.4,0.3c0.4,0.2,0.6,0.4,0.8,0.7v0.4c0,0.5-0.2,0.9-0.4,1.3s-0.5,0.5-0.8,0.5c-0.2,0-0.4,0-0.6-0.1
		c-0.2-0.1-0.3-0.2-0.4-0.3c-0.1-0.1-0.3-0.3-0.4-0.5c-0.1-0.1-0.2-0.2-0.3-0.3c-0.1-0.1-0.2-0.1-0.3-0.2c-0.2-0.1-0.3-0.1-0.5-0.1
		c-0.7,0-1.3,0.7-1.8,2c-0.5,1.4-1.1,3.7-1.7,7.1h3.9c0.1,0,0.2,0.1,0.2,0.4c0,0.2-0.1,0.5-0.3,0.9h-4c-0.9,5.4-1.7,9.8-2.3,13.1
		c-0.3,1.6-0.7,3-1.4,4.4c-0.6,1.4-1.3,2.5-2,3.4c-0.7,0.9-1.5,1.7-2.3,2.2c-0.8,0.5-1.6,0.8-2.4,0.8c-0.5,0-1-0.1-1.3-0.3
		C105.8,137.2,105.5,137,105.4,136.7z"/>
</g>
<g class="st0">
	<path d="M122.6,124c0-1.1,0.1-2.2,0.4-3.3c0.3-1.1,0.7-2.2,1.3-3.2s1.2-1.9,1.9-2.7c0.7-0.8,1.5-1.4,2.4-1.9
		c0.9-0.5,1.8-0.7,2.6-0.7c1.5,0,2.7,0.5,3.5,1.5c0.8,1,1.2,2.4,1.3,4.2c0,1.1-0.1,2.2-0.4,3.3c-0.3,1.1-0.7,2.2-1.3,3.2
		c-0.6,1-1.2,1.9-1.9,2.6c-0.7,0.8-1.5,1.4-2.4,1.9c-0.9,0.5-1.8,0.7-2.6,0.7c-1.5,0-2.7-0.4-3.4-1.4
		C123.1,127.1,122.7,125.7,122.6,124z M125.7,123.1c0,1.6,0.3,2.9,0.7,3.8c0.4,0.9,1,1.4,1.7,1.4c0.6,0,1.2-0.2,1.8-0.7
		c0.6-0.4,1-1,1.4-1.7c0.4-0.7,0.7-1.5,1-2.3c0.3-0.9,0.5-1.7,0.6-2.6c0.1-0.9,0.2-1.7,0.2-2.5c0-1.6-0.2-2.9-0.6-3.8
		c-0.4-0.9-0.9-1.3-1.6-1.3c-0.6,0-1.2,0.2-1.8,0.7c-0.6,0.4-1,1-1.4,1.7c-0.4,0.7-0.7,1.5-1,2.3c-0.3,0.9-0.5,1.7-0.6,2.6
		C125.7,121.5,125.7,122.3,125.7,123.1z"/>
	<path d="M138.6,115.7c0.1-0.2,0.4-0.5,0.7-0.9c0.3-0.4,0.7-0.8,1.2-1.2c0.5-0.4,1-0.8,1.5-1.1c0.6-0.3,1-0.5,1.5-0.5
		c0.2,0,0.4,0,0.6,0.1c0.2,0.1,0.4,0.2,0.5,0.4c0.1,0.2,0.3,0.4,0.3,0.6c0.1,0.3,0.1,0.5,0.1,0.8s-0.1,1-0.3,2.1
		c-0.1,0.7-0.3,1.8-0.5,3.3c0.3-0.7,0.6-1.5,1.1-2.3c0.4-0.8,0.9-1.6,1.4-2.4c0.5-0.8,1.1-1.5,1.6-2c0.6-0.5,1.1-0.8,1.5-0.8
		c0.4,0,0.8,0.1,1.1,0.2c0.3,0.2,0.6,0.3,0.8,0.6c0,0.1,0.1,0.2,0.2,0.3c0.1,0.1,0.1,0.3,0.1,0.4c0,0.1,0.1,0.3,0.1,0.4
		c0,0.5-0.1,0.9-0.3,1.3c-0.2,0.3-0.6,0.5-1,0.5c-0.2,0-0.4,0-0.6-0.2c-0.2-0.1-0.4-0.2-0.6-0.4c-0.2-0.2-0.4-0.3-0.8-0.3
		c-0.2,0-0.5,0.2-0.8,0.4c-0.3,0.3-0.7,0.7-1,1.2c-0.3,0.5-0.7,1.1-1.1,1.7c-0.4,0.7-0.7,1.3-1,2c-0.3,0.7-0.6,1.4-0.8,2.2
		c-0.3,0.8-0.4,1.5-0.6,2.1l-0.8,4.8c-0.5,0.1-0.9,0.1-1.4,0.1c-0.5,0-1.1,0-1.6-0.1l2.1-12.7c0.2-0.6,0.3-1,0.3-1.2
		c0-0.7-0.2-1-0.4-1c-0.1,0-0.2,0-0.4,0.1c-0.2,0.1-0.3,0.2-0.5,0.3c-0.2,0.1-0.3,0.3-0.5,0.4c-0.2,0.2-0.3,0.3-0.5,0.5
		c-0.2,0.2-0.3,0.3-0.4,0.4c-0.1,0.1-0.2,0.3-0.3,0.4c-0.1,0.1-0.1,0.2-0.1,0.2c-0.1,0-0.2-0.1-0.3-0.3
		C138.6,115.9,138.6,115.8,138.6,115.7z"/>
	<path d="M162.2,113.7c0-0.2,0.2-0.5,0.6-0.8s0.8-0.5,1.2-0.5l1.2,0l0.4-2.4c0.3-0.4,0.7-1,1.4-1.6c0.6-0.7,1-1,1.1-1
		c0.2,0,0.5,0.1,0.7,0.2l-0.8,4.8l2.9-0.1c0.1,0,0.2,0.1,0.2,0.4c0,0.2-0.1,0.5-0.3,0.9l-3,0.1l-1.9,10.6c-0.1,0.5-0.1,0.9-0.1,1.3
		c0,0.7,0.2,1,0.4,1c0.1,0,0.3-0.1,0.5-0.2c0.2-0.1,0.4-0.2,0.6-0.4c0.2-0.2,0.4-0.3,0.6-0.5c0.2-0.2,0.4-0.4,0.5-0.5
		c0.1-0.2,0.3-0.3,0.4-0.4l0.2-0.2c0,0,0.1,0,0.1,0.1c0.1,0.1,0.1,0.2,0.2,0.3c0.1,0.1,0.1,0.2,0.1,0.3c-0.1,0.2-0.3,0.5-0.7,0.9
		c-0.4,0.4-0.8,0.8-1.3,1.2c-0.5,0.4-1,0.8-1.6,1.1c-0.6,0.3-1.1,0.5-1.5,0.5c-0.4,0-0.7-0.2-1-0.6c-0.2-0.4-0.4-0.9-0.4-1.5
		c0-0.4,0.1-1.1,0.3-2.1l1.9-10.9l-2.6,0.1C162.2,113.8,162.2,113.8,162.2,113.7z"/>
	<path d="M172.7,128.3l3.9-22.9c0-0.2,0.1-0.4,0.1-0.7c0.1-0.3,0.1-0.6,0.1-0.9c0-0.2,0.1-0.4,0.1-0.4c0,0-0.8,0-2.4,0
		c-0.1-0.1-0.1-0.2,0-0.4c0-0.2,0.1-0.3,0.2-0.4c1.4-0.2,3.1-0.6,5-1.4c0.2,0.1,0.2,0.3,0.2,0.8c0,0.3-0.1,1.2-0.3,3l-1.8,10.3
		l-0.6,3.6c0.1-0.2,0.3-0.6,0.7-1.2c0.4-0.6,0.8-1.2,1.4-2c0.6-0.8,1.2-1.5,1.8-2.2c0.6-0.7,1.2-1.3,1.9-1.8
		c0.7-0.5,1.2-0.7,1.7-0.8c0.5,0,0.9,0.1,1.3,0.3c0.3,0.2,0.6,0.5,0.7,0.9c0.2,0.4,0.2,0.8,0.2,1.3c0,1.1-0.2,2.5-0.5,4.3l-1.1,5.8
		c0,0.1-0.1,0.3-0.1,0.6c-0.1,0.3-0.1,0.5-0.1,0.6c0,0.9,0.2,1.3,0.4,1.3c0.1,0,0.3-0.1,0.5-0.2c0.2-0.1,0.4-0.2,0.6-0.4
		c0.2-0.2,0.4-0.3,0.6-0.5c0.2-0.2,0.4-0.4,0.5-0.5c0.1-0.2,0.3-0.3,0.4-0.4c0.1-0.1,0.2-0.2,0.2-0.2c0.1,0,0.1,0.1,0.2,0.3
		c0.1,0.2,0.2,0.3,0.2,0.5c-0.1,0.2-0.4,0.5-0.7,0.9c-0.4,0.4-0.8,0.8-1.3,1.2c-0.5,0.4-1,0.8-1.6,1.1c-0.6,0.3-1.1,0.5-1.5,0.5
		c-0.4,0-0.8-0.2-1-0.5c-0.2-0.4-0.4-0.9-0.4-1.5c0-0.6,0.1-1.3,0.2-2.1l1.2-6.5c0-0.2,0.1-0.6,0.2-1.1c0.1-0.5,0.1-0.8,0.1-1
		c0-0.3,0-0.5,0-0.7c0-0.2-0.1-0.3-0.1-0.5c0-0.2-0.1-0.3-0.2-0.4c-0.1-0.1-0.2-0.1-0.4-0.1c-0.3,0-0.7,0.2-1.2,0.6
		c-0.5,0.4-1,0.9-1.6,1.5c-0.6,0.7-1.1,1.4-1.7,2.2c-0.5,0.8-1,1.7-1.5,2.6c-0.4,1-0.7,1.9-0.9,2.8c-0.1,1-0.4,2.5-0.8,4.7
		c-0.4,0.1-0.9,0.2-1.5,0.2C173.6,128.5,173.1,128.4,172.7,128.3z"/>
	<path d="M191,122.5c0-0.9,0.1-1.9,0.4-2.9s0.6-1.9,1.1-2.8c0.5-0.9,1-1.7,1.6-2.4c0.6-0.8,1.3-1.4,2-2c0.7-0.5,1.5-1,2.2-1.3
		c0.8-0.3,1.6-0.5,2.3-0.5c0.5,0,0.9,0.1,1.3,0.2s0.6,0.3,0.8,0.6c0.2,0.2,0.3,0.5,0.4,0.8c0.1,0.3,0.1,0.6,0.1,0.9
		c0,0.6-0.1,1.2-0.5,1.8c-0.3,0.6-0.8,1.2-1.3,1.7c-0.5,0.5-1.2,1-1.8,1.5c-0.7,0.5-1.4,0.9-2,1.2c-0.7,0.3-1.3,0.6-2,0.8
		c-0.6,0.2-1.1,0.3-1.5,0.3c-0.1,0.2-0.1,0.6-0.1,1.3c0,1.3,0.3,2.4,0.7,3.2c0.5,0.8,1.1,1.2,2.1,1.1c0.2,0,0.4,0,0.7-0.1
		c0.2-0.1,0.5-0.2,0.7-0.3c0.2-0.1,0.4-0.3,0.7-0.4c0.2-0.2,0.4-0.3,0.6-0.5c0.2-0.2,0.4-0.3,0.5-0.5c0.2-0.2,0.3-0.3,0.4-0.5
		c0.1-0.1,0.2-0.2,0.3-0.4l0.1-0.1c0.1,0,0.2,0.1,0.3,0.3c0.1,0.2,0.2,0.4,0.2,0.5c-0.1,0.3-0.4,0.6-0.8,1c-0.4,0.4-0.9,0.9-1.4,1.4
		c-0.5,0.5-1.2,0.9-1.8,1.3c-0.7,0.4-1.3,0.5-1.9,0.6c-1.4,0-2.5-0.4-3.2-1.4C191.5,125.7,191.1,124.4,191,122.5z M194.2,119.3
		c0.3,0,0.7-0.1,1.2-0.3c0.5-0.2,1-0.5,1.6-0.8c0.6-0.4,1.1-0.8,1.6-1.2c0.5-0.4,0.9-0.9,1.2-1.5c0.3-0.6,0.5-1.1,0.5-1.7
		c0-0.5-0.2-0.9-0.5-1.1c-0.3-0.3-0.7-0.4-1.1-0.4c-0.5,0-1,0.2-1.5,0.6c-0.5,0.4-0.9,0.8-1.2,1.4c-0.3,0.5-0.7,1.1-0.9,1.8
		c-0.3,0.6-0.5,1.3-0.6,1.8C194.3,118.4,194.2,118.9,194.2,119.3z"/>
</g>
<g>
	<g>
		<g>
			<defs>
				<rect id="SVGID_1_" x="-65.2" y="94.3" width="430.7" height="90.8"/>
			</defs>
			<clipPath id="SVGID_2_">
				<use xlink:href="#SVGID_1_"  style="overflow:visible;"/>
			</clipPath>
			<g class="st2">
				<g class="st0">
					<path d="M2.5,179.5c0,0,0-0.1,0-0.1c0-0.1,0-0.3,0.1-0.5c0.1-0.3,0.1-0.6,0.3-0.8c0.5,0,1.2-0.1,2.1-0.2
						c0.9-0.2,1.5-0.4,1.7-0.7c0.4-0.5,0.8-1.3,1-2.5c0.6-2.8,1.3-5.7,1.9-8.6c0.6-2.9,1.2-5.4,1.7-7.5s0.8-3.8,1.2-5.3
						c0.3-1.4,0.5-2.2,0.5-2.4c0.1-0.7,0.2-1.2,0.2-1.6c0-0.1,0-0.3,0-0.3c0-0.3-0.4-0.5-1.2-0.7s-1.4-0.3-1.8-0.3
						c0-0.1,0-0.2,0-0.3s0-0.3,0.1-0.4c0-0.2,0.1-0.3,0.1-0.4c0.1-0.1,0.1-0.2,0.1-0.2c1.9,0.1,3.4,0.2,4.5,0.2c1.3,0,2.6-0.1,4-0.2
						c0.1,0.9,0.6,3.6,1.4,7.9c0.9,4.3,1.7,8.5,2.4,12.3c0.8,3.9,1.1,5.8,1.1,5.8s0.9-1.7,2.8-5c1.9-3.3,3.8-6.7,5.6-10l2.8-5
						c0.4-0.7,0.8-1.5,1.4-2.5c0.5-1,1-1.8,1.3-2.5l0.5-1c1.9,0.1,3.1,0.2,3.5,0.2c1.5,0,3-0.1,4.6-0.2l-0.1,1.4
						c-0.4,0-1.1,0.1-2,0.3c-0.9,0.2-1.4,0.4-1.5,0.6c-0.3,0.5-0.5,1.1-0.6,1.9l-3.8,21.8c-0.3,1.6-0.4,2.8-0.4,3.8
						c0,0.4,0,0.7,0.1,1c0,0.3,0.4,0.5,1.2,0.6c0.8,0.1,1.4,0.2,1.8,0.2c0.1,0.2,0.1,0.5,0,0.8c-0.1,0.3-0.1,0.5-0.2,0.6
						c-0.3,0-0.8,0-1.6-0.1c-0.8-0.1-1.5-0.1-2.1-0.1c-0.6,0-1.2,0-1.8,0c-0.6,0-1.2,0-1.8,0c-0.6,0-1.2,0.1-2,0.1
						c-0.7,0-1.4,0.1-1.8,0.1c0-0.1,0-0.3,0-0.6c0.1-0.4,0.1-0.6,0.3-0.8c0.4,0,0.9-0.1,1.6-0.2s1.2-0.2,1.5-0.4
						c0.3-0.2,0.5-0.9,0.8-2.1c0-0.2,0.3-1.6,0.7-4.2c0.4-2.6,1-5.9,1.6-10.1s1.2-7.5,1.6-10c-0.2,0.3-1.5,2.6-3.9,6.9
						s-4.8,8.5-7.1,12.6l-3.5,6.2c-0.2,0.3-0.5,0.8-1.1,1.5s-0.9,1-1.1,1.1c0,0-0.1,0-0.1,0c0,0-0.1,0-0.1,0c0,0-0.1,0-0.1,0
						c0,0-0.1,0-0.1,0l-5.7-29.1c-0.4,2-0.9,4.3-1.5,6.7c-0.5,2.5-1,4.7-1.5,6.8c-0.5,2.1-0.9,4-1.3,5.8c-0.4,1.8-0.7,3.2-0.9,4.3
						c-0.2,1.1-0.4,1.7-0.4,1.8c-0.1,0.4-0.1,0.7-0.1,1.1c0,0.2,0,0.3,0,0.5c0,0.2,0.3,0.4,0.9,0.5c0.6,0.1,1.1,0.2,1.5,0.3
						c0.5,0,0.8,0.1,1,0.1c0.1,0.1,0.1,0.3,0.1,0.5c0,0.2-0.1,0.4-0.1,0.6c-0.1,0.2-0.1,0.3-0.1,0.4c-0.4,0-0.9-0.1-1.5-0.1
						c-0.6,0-1.2-0.1-1.6-0.1s-1,0-1.6,0c-0.6,0-1.2,0-1.8,0s-1.2,0.1-1.9,0.1C3.6,179.5,3,179.5,2.5,179.5z"/>
					<path d="M48.1,165.8c0-1.9,0.2-3.7,0.7-5.4c0.5-1.7,1.1-3.3,1.9-4.7c0.8-1.4,1.8-2.7,2.9-3.9c1.1-1.2,2.3-2.2,3.6-3
						c1.3-0.8,2.7-1.4,4.2-1.8s2.9-0.7,4.4-0.7c1.9,0,3.7,0.4,5.3,1.1c1.6,0.7,3,1.7,4,3c1.1,1.3,1.9,2.7,2.5,4.5
						c0.6,1.7,0.9,3.6,0.9,5.6c0,1.9-0.2,3.7-0.6,5.5c-0.4,1.8-1,3.4-1.8,4.8c-0.8,1.4-1.7,2.7-2.8,3.9s-2.3,2.1-3.6,2.9
						c-1.3,0.8-2.7,1.4-4.2,1.8c-1.5,0.4-3,0.6-4.6,0.6c-2,0-3.8-0.4-5.4-1.1s-3-1.7-4.1-3c-1.1-1.3-1.9-2.8-2.5-4.5
						S48.1,167.7,48.1,165.8z M52.8,166c0,0.9,0,1.7,0.1,2.5s0.2,1.6,0.4,2.5c0.2,0.8,0.4,1.6,0.7,2.3c0.3,0.7,0.7,1.4,1.1,2
						s1,1.2,1.6,1.6c0.6,0.5,1.3,0.8,2.1,1.1c0.8,0.3,1.7,0.4,2.6,0.4c1.2,0,2.4-0.3,3.6-0.8s2.2-1.2,3.1-2.1
						c0.9-0.9,1.7-1.9,2.5-3.1c0.7-1.2,1.3-2.5,1.8-3.9c0.5-1.4,0.9-2.8,1.1-4.3s0.4-3,0.4-4.5c0-0.7,0-1.5-0.1-2.2
						c-0.1-0.7-0.2-1.5-0.4-2.3c-0.2-0.8-0.4-1.6-0.7-2.3c-0.3-0.7-0.6-1.4-1.1-2.1c-0.5-0.7-1-1.2-1.5-1.7
						c-0.6-0.5-1.3-0.8-2.1-1.1c-0.8-0.3-1.7-0.4-2.7-0.4c-1.3,0-2.5,0.3-3.7,0.9c-1.2,0.6-2.4,1.4-3.4,2.6c-1,1.1-2,2.4-2.8,3.9
						c-0.8,1.5-1.4,3.2-1.9,5.1C53.1,162,52.8,164,52.8,166z"/>
					<path d="M79.9,178.8c0.1-0.3,0.2-0.6,0.3-0.7c0.5,0,1.1-0.1,1.9-0.2s1.3-0.3,1.4-0.6c0-0.1,0.1-0.2,0.1-0.3
						c0.1-0.1,0.1-0.3,0.1-0.4c0-0.1,0.1-0.3,0.1-0.4c0-0.2,0.1-0.3,0.1-0.4s0.1-0.3,0.1-0.5c0-0.2,0.1-0.4,0.1-0.5
						c0-0.1,0.1-0.3,0.1-0.6c0.1-0.3,0.1-0.5,0.1-0.5l4.2-21.3c0-0.1,0-0.2,0.1-0.3c0.3-1.5,0.5-2.5,0.5-3.1c0-0.1,0-0.2,0-0.3
						c0-0.2-0.4-0.4-1.2-0.6c-0.8-0.1-1.4-0.2-1.9-0.2c-0.1-0.1-0.1-0.4,0-0.8c0.1-0.4,0.1-0.7,0.3-0.8c0.3,0,0.9,0,1.7,0.1
						c0.8,0.1,1.5,0.1,2.1,0.1c0.6,0,1.1,0,1.6,0c0.6,0,1.7,0,3.3,0s2.8,0,3.5,0c1.8,0,3.4,0.2,4.9,0.6s2.8,0.9,3.9,1.6
						s2,1.5,2.9,2.5c0.8,1,1.4,2.1,1.8,3.3c0.4,1.2,0.6,2.5,0.7,3.9c0,0.3,0,0.6,0,1c0,1.1-0.1,2.2-0.4,3.4
						c-0.2,1.1-0.5,2.2-0.8,3.2c-0.3,1-0.7,2-1.2,3s-1.1,2-1.7,2.8c-0.6,0.9-1.4,1.7-2.2,2.5s-1.7,1.5-2.8,2.1
						c-1,0.6-2.2,1.2-3.4,1.6s-2.5,0.8-4,1.1c-1.5,0.2-3,0.4-4.7,0.4H80c-0.1-0.1-0.1-0.2-0.1-0.3C79.9,179.1,79.9,179,79.9,178.8z
						 M88,177.4c0.2,0.5,1.4,0.7,3.7,0.7c1.5,0,2.9-0.2,4.2-0.5c1.4-0.4,2.7-0.9,3.9-1.7c1.3-0.8,2.4-1.7,3.4-2.8
						c1-1.1,1.9-2.4,2.7-4c0.8-1.6,1.3-3.3,1.7-5.2c0.4-1.7,0.5-3.3,0.5-4.7c0-0.4,0-0.9,0-1.3c-0.1-1.7-0.5-3.2-1.1-4.5
						c-0.6-1.2-1.3-2.3-2.4-3.1s-2.2-1.4-3.4-1.8c-1.3-0.4-2.7-0.6-4.3-0.6c-0.3,0-0.7,0-1.1,0c-0.4,0-0.9,0.1-1.4,0.2
						s-0.8,0.2-0.9,0.4s-0.1,0.3-0.2,0.5c-0.1,0.2-0.1,0.4-0.2,0.7c-0.1,0.3-0.1,0.5-0.1,0.7c0,0.2-0.1,0.5-0.2,0.9
						c-0.1,0.5-0.1,0.7-0.2,0.8l-4.2,21.6c-0.1,0.4-0.3,1.1-0.4,2c-0.1,0.6-0.1,1-0.1,1.2C87.9,177.2,87.9,177.3,88,177.4z"/>
					<path d="M113.7,178.8c0.1-0.3,0.2-0.6,0.3-0.7c0.1,0,0.2,0,0.4,0s0.4,0,0.6-0.1c0.2,0,0.5-0.1,0.7-0.1c0.3,0,0.5-0.1,0.7-0.2
						c0.2-0.1,0.4-0.1,0.6-0.2c0.2-0.1,0.3-0.2,0.3-0.3c0-0.1,0.1-0.2,0.1-0.3c0.1-0.1,0.1-0.3,0.1-0.4c0-0.1,0.1-0.3,0.1-0.4
						c0-0.2,0.1-0.3,0.1-0.4c0-0.1,0.1-0.3,0.1-0.5c0-0.2,0.1-0.4,0.1-0.5s0.1-0.3,0.1-0.6s0.1-0.4,0.1-0.5l4.2-21.3
						c0.3-1.6,0.5-2.8,0.5-3.5c0-0.1,0-0.2,0-0.4c0-0.2-0.4-0.4-1.2-0.6c-0.8-0.1-1.4-0.2-1.9-0.2c-0.1-0.1-0.1-0.3,0-0.6
						c0.1-0.3,0.2-0.5,0.3-0.6c0.3,0,0.9,0,1.7,0.1c0.8,0,1.5,0.1,2.1,0.1c0.6,0,1.1,0,1.6,0c1.4,0,3.8-0.1,7.2-0.2s6-0.2,7.7-0.2
						c0,0.2-0.1,0.6-0.1,1.2c0,0.6,0,1.3,0,2.1c0.1,2,0.1,3.1,0.1,3.4c-0.2,0.2-0.5,0.3-0.9,0.3c-0.4,0-0.5-0.1-0.5-0.4
						c-0.1-1-0.2-1.9-0.4-2.5c-0.2-0.7-0.5-1.2-0.9-1.6c-0.4-0.4-0.8-0.6-1.3-0.8s-1-0.2-1.7-0.2h-4c-0.3,0-0.7,0-1.1,0
						c-0.4,0-0.8,0.1-1.3,0.2c-0.5,0.1-0.8,0.2-0.9,0.4c-0.4,0.7-0.7,2-1,3.7l-1.9,9.6c0,0.1,0.1,0.2,0.5,0.2s0.9,0.1,1.5,0.1h2.5
						c0.6,0,1,0,1.4,0c0.4,0,0.7,0,1.1-0.1c0.4-0.1,0.6-0.1,0.8-0.1s0.4-0.1,0.6-0.3c0.2-0.2,0.4-0.3,0.5-0.4s0.2-0.3,0.4-0.6
						c0.2-0.3,0.3-0.5,0.4-0.7c0.1-0.2,0.2-0.5,0.4-1c0.1-0.2,0.2-0.3,0.2-0.5c0.1-0.2,0.4-0.4,0.8-0.4c0.3,0,0.6,0.1,0.7,0.3
						l-1.8,9.5c-0.1,0.1-0.4,0.2-0.8,0.2c-0.4,0-0.6-0.1-0.7-0.4c-0.1-1.3-0.1-2.2-0.2-2.6s-0.2-0.7-0.4-0.9c-0.4-0.3-2-0.4-4.9-0.4
						c-2.2,0-3.4,0.1-3.4,0.4l-1.9,9.8c-0.3,1.5-0.4,2.5-0.4,3c0,0.2,0,0.4,0.1,0.5c0.2,0.2,0.4,0.3,0.7,0.3s0.6,0.1,0.9,0.1
						c0.3,0,0.9,0,1.6,0h2.2c2.6,0,4.6-0.5,6.2-1.6c1.5-1,2.8-2.7,3.9-5c0.1-0.2,0.3-0.3,0.7-0.3c0.2,0,0.5,0,0.7,0.1
						c0.2,0.1,0.4,0.1,0.4,0.2c-0.2,0.4-0.7,1.3-1.4,2.6c-0.7,1.3-1.3,2.5-1.7,3.3c-0.4,0.9-0.8,1.6-1,2.3c-1.6,0-4,0-7.4-0.1
						c-3.4-0.1-6.1-0.1-8.3-0.1c-0.8,0-1.7,0-2.9,0.1c-1.2,0.1-2,0.1-2.6,0.1c-0.1-0.1-0.1-0.2-0.1-0.4
						C113.6,179.1,113.6,178.9,113.7,178.8z"/>
					<path d="M141.3,178.8c0.1-0.3,0.2-0.6,0.3-0.7c0.1,0,0.2,0,0.4,0s0.4,0,0.6-0.1c0.2,0,0.5-0.1,0.7-0.1c0.3,0,0.5-0.1,0.7-0.2
						c0.2-0.1,0.4-0.1,0.6-0.2c0.2-0.1,0.3-0.2,0.3-0.3c0-0.1,0.1-0.2,0.1-0.3c0.1-0.1,0.1-0.3,0.1-0.4c0-0.1,0.1-0.3,0.1-0.4
						s0.1-0.3,0.1-0.4s0.1-0.3,0.1-0.5c0-0.2,0.1-0.4,0.1-0.5c0-0.1,0.1-0.3,0.1-0.6c0.1-0.3,0.1-0.5,0.1-0.5l4.2-21.3
						c0.3-1.6,0.5-2.7,0.5-3.3c0-0.1,0-0.2,0-0.4c0-0.2-0.4-0.4-1.2-0.6c-0.8-0.1-1.4-0.2-1.9-0.2c-0.1-0.1-0.1-0.4,0-0.7
						c0.1-0.4,0.2-0.6,0.3-0.7c3.2,0.2,5,0.2,5.6,0.2c0.5,0,1.5,0,3-0.1c1.5,0,2.7-0.1,3.7-0.1c0.9,0,1.7,0.1,2.5,0.3
						c0.8,0.2,1.5,0.5,2.2,0.9c0.7,0.4,1.2,0.9,1.7,1.4c0.5,0.6,0.9,1.2,1.1,2c0.3,0.8,0.4,1.6,0.4,2.5c0,1.2-0.2,2.3-0.7,3.4
						c-0.5,1.1-1.2,2-2,2.9c-0.8,0.8-1.7,1.5-2.7,2.2c-1,0.6-1.9,1.1-3,1.5c0.8,2.1,1.7,4.3,2.8,6.5c1,2.2,1.9,3.9,2.6,5.1
						c0.6,1,1.2,1.8,1.9,2.2s1.6,0.7,2.8,0.8c0,0,0,0.1,0,0.2c0,0.1,0,0.2,0,0.3c-0.1,0.2-0.1,0.4-0.2,0.6s-0.1,0.3-0.1,0.4
						c-0.8,0-1.4,0-2,0c-0.6,0-1.1-0.1-1.8-0.1c-0.6-0.1-1.2-0.1-1.6-0.3c-0.4-0.1-0.9-0.3-1.3-0.4c-0.4-0.2-0.8-0.4-1.1-0.7
						c-0.3-0.3-0.6-0.6-0.7-1c-0.8-1.5-1.7-3.4-2.7-5.7c-1-2.2-1.9-4.4-2.7-6.5c-0.1-0.4-0.6-0.6-1.3-0.6h-2.5l-1.8,9.3
						c0,0.1,0,0.2-0.1,0.3c-0.3,1.5-0.4,2.6-0.4,3.2c0,0.1,0,0.2,0,0.2c0,0.2,0.4,0.4,1.2,0.6c0.8,0.1,1.4,0.2,1.8,0.2
						c0.1,0.1,0.1,0.4,0,0.7c-0.1,0.4-0.2,0.6-0.3,0.7c-0.3,0-0.9,0-1.7-0.1c-0.8-0.1-1.4-0.1-2-0.1s-1.1,0-1.6,0s-1.1,0-1.6,0
						c-0.6,0-1.3,0.1-2.1,0.1c-0.8,0.1-1.4,0.1-1.8,0.1c-0.1-0.1-0.1-0.2-0.1-0.4C141.2,179.1,141.2,178.9,141.3,178.8z
						 M151.9,162.8h2.5c0.6,0,1.1-0.1,1.7-0.2c0.6-0.1,1.2-0.3,1.7-0.5c0.6-0.2,1.1-0.5,1.7-0.9s1-0.8,1.5-1.3
						c0.4-0.5,0.8-1,1.2-1.6c0.3-0.6,0.6-1.3,0.8-2c0.2-0.8,0.3-1.6,0.3-2.4c0-0.5,0-1-0.1-1.4c-0.1-0.5-0.2-1-0.5-1.5
						c-0.3-0.6-0.6-1.1-1-1.5c-0.4-0.4-1-0.8-1.7-1c-0.7-0.3-1.6-0.4-2.6-0.4c-1.5,0-2.3,0.2-2.5,0.5c0,0.1-0.1,0.2-0.1,0.2
						c0,0.1-0.1,0.2-0.1,0.3c0,0.1-0.1,0.2-0.1,0.3c0,0.1-0.1,0.2-0.1,0.4c0,0.2-0.1,0.3-0.1,0.4c0,0.1-0.1,0.3-0.1,0.5
						c0,0.2-0.1,0.4-0.1,0.5s-0.1,0.3-0.1,0.5s-0.1,0.4-0.1,0.5L151.9,162.8z"/>
					<path d="M169.8,178.9c0.1-0.3,0.2-0.6,0.3-0.8c0.4,0,1.1-0.1,2.1-0.3c0.9-0.2,1.5-0.4,1.7-0.7c0.3-0.4,0.5-0.8,0.6-1.3
						c0.2-0.5,0.3-1.2,0.5-2.1l4.2-21.6c0.2-1,0.3-1.7,0.3-2.1c0-0.4,0-0.8-0.1-1.3c-0.1-0.3-0.6-0.5-1.4-0.6
						c-0.8-0.2-1.5-0.2-2-0.2c-0.1-0.3-0.1-0.6,0-0.8c0.1-0.3,0.1-0.5,0.3-0.6c0.4,0,0.9,0,1.3,0.1c0.4,0,0.8,0.1,1,0.1s0.5,0,0.9,0
						c0.3,0,0.7,0,1,0c1,0,2.4-0.1,4.1-0.2c0.4,1.1,1.5,3.2,3.2,6.2c1.7,3,3.6,6.4,5.6,10c2,3.6,3.6,6.5,4.6,8.7l3.6-18.9
						c0.2-1,0.4-1.7,0.4-2.2c0-0.1,0-0.1,0-0.2c0-0.4-0.1-0.8-0.2-1.2c-0.1-0.3-0.6-0.5-1.4-0.7c-0.8-0.2-1.5-0.3-2-0.3
						c-0.1-0.2-0.1-0.4,0-0.8c0-0.3,0.1-0.5,0.2-0.7c2.4,0.1,4.1,0.2,5.1,0.2c0.5,0,1,0,1.4,0c0.5,0,0.8,0,1.1,0
						c0.3,0,0.7,0,1.2-0.1s1-0.1,1.4-0.1c0.1,0.1,0.1,0.2,0.1,0.4c0,0,0,0.1,0,0.2c0,0.3-0.1,0.6-0.3,0.9c-0.4,0-1.1,0.1-2,0.3
						c-0.9,0.2-1.5,0.4-1.7,0.7c-0.3,0.4-0.5,0.8-0.6,1.2s-0.3,1.2-0.5,2.2l-3.9,20.3c-0.6,3.2-1,5.5-1.2,7
						c-0.1,0.1-0.4,0.2-0.9,0.2c-0.2,0-0.4-0.1-0.7-0.3c-0.3-0.2-0.5-0.5-0.6-0.8l-15-27.5l-4.4,22.6c-0.1,0.7-0.2,1.2-0.3,1.5
						c-0.1,0.3-0.1,0.7-0.1,1c0,0.3,0.1,0.6,0.2,0.9c0.1,0.2,0.3,0.3,0.8,0.5s0.9,0.3,1.4,0.4c0.5,0.1,0.9,0.1,1.1,0.1
						c0.1,0.2,0.1,0.5,0,0.7c-0.1,0.3-0.1,0.5-0.2,0.7c-0.4,0-0.9-0.1-1.6-0.1c-0.7,0-1.3-0.1-1.8-0.1c-0.5,0-1.1,0-1.7,0
						c-0.6,0-1.2,0-1.7,0s-1.1,0.1-1.7,0.1c-0.6,0-1.2,0.1-1.7,0.1c0-0.1-0.1-0.2-0.1-0.3C169.8,179.2,169.8,179,169.8,178.9z"/>
				</g>
				<g class="st0">
					<path d="M216.1,179.5c0,0,0-0.1,0-0.2c0-0.1,0-0.3,0.1-0.5c0.1-0.3,0.2-0.6,0.3-0.8c0.4,0,0.9-0.1,1.5-0.3
						c0.6-0.2,1.1-0.4,1.3-0.7c0.3-0.3,0.6-0.6,0.8-1c0.3-0.3,0.5-0.7,0.8-1.2c0.3-0.4,0.5-0.8,0.7-1.2s0.4-0.8,0.8-1.3l13.7-24.7
						c0.2-0.4,0.5-0.7,1-1c0.5-0.3,0.8-0.4,1.1-0.4c0.1,0,0.2,0.1,0.3,0.2l4.3,26.6c0.1,0.5,0.2,1,0.3,1.6c0.1,0.6,0.2,1,0.2,1.3
						s0.1,0.4,0.1,0.5c0,0.2,0.1,0.4,0.3,0.6c0.2,0.2,0.3,0.3,0.6,0.4c0.2,0.1,0.4,0.2,0.7,0.3s0.5,0.1,0.7,0.2
						c0.2,0,0.4,0.1,0.6,0.1s0.3,0,0.3,0c0,0.1,0.1,0.3,0.1,0.4c0,0.1,0,0.2,0,0.4c-0.1,0.3-0.1,0.6-0.2,0.7c-0.3,0-0.8,0-1.6-0.1
						c-0.8-0.1-1.5-0.1-2.1-0.1c-0.6,0-1.2,0-1.8,0c-0.5,0-1,0-1.5,0c-0.5,0-0.9,0-1.2,0.1c-0.3,0-0.7,0-1.2,0.1
						c-0.5,0-1,0.1-1.4,0.1c-0.1-0.1-0.1-0.4,0-0.7c0.1-0.4,0.2-0.6,0.3-0.7c0.6,0,1.1-0.1,1.5-0.2s0.8-0.3,1-0.5
						c0.2-0.2,0.3-0.5,0.3-0.8c0-1,0-1.8-0.1-2.4l-1.2-7.5h-9.9c-1.6,2.9-2.8,5-3.5,6.5c-1,1.9-1.4,3.1-1.4,3.7
						c0,0.2,0.1,0.5,0.4,0.6c0.3,0.2,0.6,0.3,1,0.4c0.4,0.1,0.7,0.1,1,0.2c0.3,0,0.5,0,0.6,0c0,0.1,0,0.3,0,0.7s-0.1,0.6-0.2,0.8
						c-0.5,0-0.9-0.1-1.4-0.1c-0.5,0-1-0.1-1.4-0.1s-1,0-1.6,0c-0.6,0-1.2,0-1.6,0c-0.5,0-1,0.1-1.6,0.1
						C217.2,179.5,216.6,179.5,216.1,179.5z M228.5,165h8.7l-1.9-12.2L228.5,165z"/>
				</g>
				<g class="st0">
					<path d="M249.3,166.2c0-2.1,0.3-4,0.8-5.9c0.5-1.8,1.2-3.5,2.2-5c0.9-1.5,2-2.8,3.3-4c1.3-1.2,2.7-2.2,4.1-2.9
						c1.5-0.8,3.1-1.4,4.7-1.8c1.5-0.3,3-0.5,4.6-0.5c0.2,0,0.3,0,0.5,0c0.9,0,1.9,0.1,2.9,0.2c1,0.1,1.9,0.3,2.5,0.4
						s1.5,0.3,2.6,0.6c0,0.5-0.1,1.3-0.1,2.2s-0.1,2-0.2,3c-0.1,1-0.1,1.7-0.2,2c0,0.1,0,0.1-0.1,0.2s-0.2,0.1-0.3,0.1
						c-0.4,0-0.8-0.1-1.1-0.2c0-0.1,0-0.3,0-0.4c0-1.1-0.3-2.2-0.9-3.2c-0.7-1.1-1.6-1.9-2.7-2.5c-1.2-0.6-2.4-0.9-3.8-0.9
						c-1.9,0-3.8,0.4-5.5,1.2c-1.7,0.8-3.2,2-4.5,3.5c-1.3,1.5-2.3,3.4-3,5.6c-0.7,2.2-1.1,4.5-1.1,7.1c0,0,0,0.1,0,0.2
						c0,1.2,0.1,2.4,0.3,3.6s0.6,2.4,1.1,3.5s1.2,2.1,1.9,3s1.7,1.6,2.9,2.1s2.4,0.8,3.8,0.8c1.1,0,2.1-0.2,3.1-0.5
						c1-0.3,1.8-0.7,2.5-1.2c0.3-0.2,0.4-0.5,0.5-0.9l1-5.1c0-0.1,0-0.2,0.1-0.3c0.3-1.5,0.4-2.6,0.4-3.1c0-0.1,0-0.2,0-0.2
						c0-0.2-0.5-0.4-1.3-0.6c-0.8-0.1-1.5-0.2-2-0.2c-0.1-0.1-0.1-0.4,0-0.7c0.1-0.4,0.2-0.6,0.3-0.7c0.3,0,0.9,0,1.7,0.1
						c0.8,0.1,1.5,0.1,2,0.1s1.1,0,1.6,0c0.5,0,1.1,0,1.7,0s1.3-0.1,2.1-0.1c0.8-0.1,1.4-0.1,1.7-0.1c0.1,0.1,0.1,0.2,0.1,0.4
						c0,0.1,0,0.2,0,0.3c-0.1,0.4-0.2,0.6-0.3,0.7c-0.5,0-1.1,0.1-1.9,0.2c-0.8,0.1-1.2,0.3-1.3,0.6c0,0.1-0.1,0.2-0.1,0.3
						c-0.1,0.1-0.1,0.2-0.1,0.3c0,0.1-0.1,0.3-0.1,0.4c-0.1,0.2-0.1,0.3-0.1,0.5s-0.1,0.3-0.1,0.5c0,0.2-0.1,0.4-0.1,0.5
						c0,0.1-0.1,0.3-0.1,0.6c-0.1,0.3-0.1,0.5-0.1,0.5l-0.7,3.5c-0.1,0.3-0.1,0.7,0,1.1c0.1,0.4,0.1,0.7,0.1,0.7
						c0,0.4-0.4,0.7-1.1,1.1c-0.1,0-0.2,0.1-0.4,0.2c-0.7,0.4-1.4,0.7-1.8,0.9c-0.5,0.2-1.2,0.5-2,0.8c-0.9,0.3-1.9,0.5-3,0.6
						c-1.1,0.1-2.3,0.2-3.7,0.2c-1.9,0-3.6-0.4-5.3-1.1s-3-1.7-4.2-2.9c-1.1-1.2-2-2.7-2.7-4.3C249.6,169.7,249.3,168,249.3,166.2z"
						/>
					<path d="M280.8,178.8c0.1-0.3,0.2-0.6,0.3-0.7c0.1,0,0.2,0,0.4,0c0.2,0,0.4,0,0.6-0.1c0.2,0,0.5-0.1,0.7-0.1
						c0.3,0,0.5-0.1,0.7-0.2c0.2-0.1,0.4-0.1,0.6-0.2c0.2-0.1,0.3-0.2,0.3-0.3c0-0.1,0.1-0.2,0.1-0.3c0.1-0.1,0.1-0.3,0.1-0.4
						c0-0.1,0.1-0.3,0.1-0.4c0-0.2,0.1-0.3,0.1-0.4c0-0.1,0.1-0.3,0.1-0.5s0.1-0.4,0.1-0.5c0-0.1,0.1-0.3,0.1-0.6
						c0.1-0.3,0.1-0.4,0.1-0.5l4.2-21.3c0.3-1.6,0.5-2.8,0.5-3.5c0-0.1,0-0.2,0-0.4c0-0.2-0.4-0.4-1.2-0.6c-0.8-0.1-1.4-0.2-1.9-0.2
						c-0.1-0.1-0.1-0.3,0-0.6c0.1-0.3,0.2-0.5,0.3-0.6c0.3,0,0.9,0,1.7,0.1c0.8,0,1.5,0.1,2.1,0.1s1.1,0,1.6,0
						c1.4,0,3.8-0.1,7.2-0.2s6-0.2,7.7-0.2c0,0.2-0.1,0.6-0.1,1.2c0,0.6,0,1.3,0,2.1c0.1,2,0.1,3.1,0.1,3.4
						c-0.2,0.2-0.5,0.3-0.9,0.3c-0.4,0-0.5-0.1-0.5-0.4c-0.1-1-0.2-1.9-0.4-2.5c-0.2-0.7-0.5-1.2-0.9-1.6s-0.8-0.6-1.3-0.8
						s-1-0.2-1.7-0.2h-4c-0.3,0-0.7,0-1.1,0c-0.4,0-0.8,0.1-1.3,0.2c-0.5,0.1-0.8,0.2-0.9,0.4c-0.4,0.7-0.7,2-1,3.7l-1.9,9.6
						c0,0.1,0.1,0.2,0.5,0.2s0.9,0.1,1.5,0.1h2.5c0.6,0,1,0,1.4,0s0.7,0,1.1-0.1c0.4-0.1,0.6-0.1,0.8-0.1s0.4-0.1,0.6-0.3
						c0.2-0.2,0.4-0.3,0.5-0.4s0.2-0.3,0.4-0.6c0.2-0.3,0.3-0.5,0.4-0.7c0.1-0.2,0.2-0.5,0.4-1c0.1-0.2,0.2-0.3,0.2-0.5
						c0.1-0.2,0.4-0.4,0.8-0.4c0.3,0,0.6,0.1,0.7,0.3l-1.8,9.5c-0.1,0.1-0.4,0.2-0.8,0.2c-0.4,0-0.6-0.1-0.7-0.4
						c-0.1-1.3-0.2-2.2-0.2-2.6c-0.1-0.4-0.2-0.7-0.4-0.9c-0.4-0.3-2-0.4-4.9-0.4c-2.2,0-3.4,0.1-3.4,0.4l-1.9,9.8
						c-0.3,1.5-0.4,2.5-0.4,3c0,0.2,0,0.4,0.1,0.5c0.2,0.2,0.4,0.3,0.7,0.3s0.6,0.1,0.9,0.1c0.3,0,0.9,0,1.6,0h2.2
						c2.6,0,4.6-0.5,6.2-1.6c1.5-1,2.8-2.7,3.9-5c0.1-0.2,0.3-0.3,0.7-0.3c0.2,0,0.5,0,0.7,0.1c0.2,0.1,0.4,0.1,0.4,0.2
						c-0.2,0.4-0.7,1.3-1.4,2.6c-0.7,1.3-1.3,2.5-1.7,3.3c-0.4,0.9-0.8,1.6-1,2.3c-1.6,0-4,0-7.4-0.1c-3.4-0.1-6.1-0.1-8.3-0.1
						c-0.8,0-1.7,0-2.9,0.1c-1.2,0.1-2,0.1-2.6,0.1c-0.1-0.1-0.1-0.2-0.1-0.4C280.7,179.1,280.7,178.9,280.8,178.8z"/>
				</g>
			</g>
		</g>
	</g>
</g>
</svg>
